<svg x="0" y="0" width="1080" height="540" viewBox="0 0 1080 540" xmlns="http://www.w3.org/2000/svg" xmlns:xlink="http://www.w3.org/1999/xlink" xmlns:fi="http://pattern.flaticon.com/"><rect x="0px" y="0px" width="100%" height="100%" opacity="1" fill="#434343"/><defs><g transform="matrix(0.08132974803447723 0.032971519976854324 -0.032971519976854324 0.08132974803447723 250.1728057861328 -24.60150146484375)" id="L1_0"><g><path d="m394.569 318.441c-19.456 0-194.922 0-257.138 0 0 15.193-10 33.607-10 42.308 0 55.209 29.901 101.576 79.124 117.676.056-.088 33.619 8.782 49.445 8.782s50.273-7.335 50.273-7.335c33.147-7.791 51.931-24.992 72.807-48.254 10.181-20.916 15.489-45.099 15.489-70.869 0-10.833 0-27.187 0-42.308z" fill="#f7f9fa"/><path d="m216.555 478.425c-49.222-16.1-79.124-62.467-79.124-117.676 0-8.701 0-27.115 0-42.308-9.88 0-16.91 0-20 0v42.308c0 69.354 38.407 127.242 106.96 140.764z" fill="#dce6eb"/><path d="m151.848 357.888c-4.736-9.723-11.872-19.447-34.417-19.447v-20h34.417z" fill="#b9c3cd"/><path d="m360.152 318.441h34.417v20c-22.545 0-29.681 9.723-34.417 19.447z" fill="#b9c3cd"/><path d="m296.273 479.872-8.664 21.642c43.081-8.498 74.252-34.519 91.471-69.895-20.875 23.261-49.659 40.461-82.807 48.253z" fill="#dce6eb"/><path d="m243.176 480.46c-6.149-11.526-20.662-10.939-26.455-2.299-.058.087-.109.176-.165.264 8.363 4.586 19.617 7.376 30.543 5.639-.667-1.249-3.314-2.462-3.923-3.604z" fill="#ffe07d"/><path d="m216.555 478.425c-5.481 8.536-1.017 19.739 7.836 23.088 9.915 1.956 20.458 2.987 31.609 2.987 0 0-1.809-12.314-10.902-20.436-10.105-.804-19.64-2.727-28.543-5.639z" fill="#ffd064"/><path d="m296.273 479.872c-.289-.58-.619-1.151-.994-1.71-5.793-8.64-20.307-9.227-26.455 2.299-.605 1.134-3.273 2.386-3.975 3.703 11.25 2.389 22.597.639 31.424-4.292z" fill="#ffe07d"/><path d="m296.273 479.872c-9.479 2.228-19.316 3.68-29.424 4.291-8.419 8.023-10.849 20.337-10.849 20.337 11.151 0 21.694-1.031 31.609-2.987 8.36-3.163 12.811-13.331 8.664-21.641z" fill="#ffd064"/><path d="m256 487.207c3.649 0 10.849-3.044 10.849-3.044.702-1.316 1.37-2.568 1.975-3.703 6.149-11.526-2.422-23.253-12.824-23.253s-18.973 11.727-12.824 23.253c.609 1.142 1.256 2.354 1.922 3.604 0 0 7.198 3.143 10.902 3.143z" fill="#bce097"/><path d="m256 484.5c-3.704 0-7.337-.153-10.902-.436 4.912 9.208 10.902 20.436 10.902 20.436s6.198-11.618 10.849-20.337c-3.584.216-7.2.337-10.849.337z" fill="#9cd169"/><path d="m394.569 303.441c24.589 0 44.327-13.388 59.976-32.293 1.669-6.413 2.539-13.211 2.539-20.223 0-21.39-4.167-50.865-8.841-76.008l-40.617-105.43c-11.484-14.321-24.878-25.651-39.492-34.484l-64.761-23.49c-15.747-2.813-31.734-4.013-47.373-4.013-15.638 0-31.626 1.2-47.373 4.013l-64.761 23.49c-6.294 3.804-12.363 8.072-18.15 12.841-5.828 7.06-11.183 14.865-15.976 23.482l-26.41 68.843c-5.88 33.422-11.414 83.972-11.414 110.756 0 11.333 4.947 52.516 45.516 52.516 33.212 0 54.417 16.285 54.417 54.447h188.303c0-38.162 3.872-54.447 34.417-54.447z" fill="#f7f9fa"/><path d="m80.732 282.866c.377 0 .745-3.963 1.117-3.943-4.36-7.323-6.934-16.665-6.934-27.998 0-26.785 6.534-77.335 12.414-110.756-14.873 4.95-19.262 22.711-23.573 34.748-4.673 25.143-8.841 54.618-8.841 76.009 0 7.012.87 13.81 2.539 20.223 4.612 5.57 11.734 11.717 23.278 11.717z" fill="#dce6eb"/><path d="m125.716 47.844c-7.649 6.304-14.804 13.49-21.342 21.643 1.337 3.803 1.337 3.803 5.366 1.839 4.793-8.617 10.148-16.422 15.976-23.482z" fill="#dce6eb"/><path d="m410.443 298.051c-5.039.26-10.322.39-15.874.39-30.545 0-34.417 21.285-34.417 59.447 0-30.162 11.872-39.447 34.417-39.447 8.032 0 15.398-1.332 22.051-3.739-3.866-3.795-1.265-9.079-1.265-14.924.001-.583-4.959-1.156-4.912-1.727z" fill="#dce6eb"/><path d="m310.019 217.731c-14.655.005-30.664-12.881-24.458-27.864s26.638-12.775 36.997-2.409l.001-.001c-10.366-10.359-12.574-30.791 2.409-36.997s27.869 9.803 27.864 24.458h.001c-.005-14.655 12.881-30.664 27.864-24.458s12.775 26.638 2.409 36.997l.001.001c10.359-10.366 30.791-12.574 36.997 2.409s-9.803 27.869-24.458 27.864v.001c14.655-.005 30.664 12.881 24.458 27.864s-26.638 12.775-36.997 2.409l-.001.001c10.366 10.359 12.574 30.791-2.409 36.997s-27.869-9.803-27.864-24.458h-.001c.005 14.655-12.881 30.664-27.864 24.458s-12.775-26.638-2.409-36.997l-.001-.001c-10.359 10.366-30.791 12.574-36.997-2.409s9.803-27.868 24.458-27.865z" fill="#e279b3"/><path d="m201.981 217.731c14.655.005 30.664-12.881 24.458-27.864s-26.638-12.775-36.997-2.409l-.001-.001c10.366-10.359 12.574-30.791-2.409-36.997s-27.869 9.803-27.864 24.458h-.001c.005-14.655-12.881-30.664-27.864-24.458s-12.775 26.638-2.409 36.997l-.001.001c-10.359-10.366-30.791-12.574-36.997 2.409s9.803 27.869 24.458 27.864v.001c-14.655-.005-30.664 12.881-24.458 27.864s26.638 12.775 36.997 2.409l.001.001c-10.366 10.359-12.574 30.791 2.409 36.997s27.869-9.803 27.864-24.458h.001c-.005 14.655 12.881 30.664 27.864 24.458s12.775-26.638 2.409-36.997l.001-.001c10.359 10.366 30.791 12.574 36.997-2.409s-9.803-27.868-24.458-27.865z" fill="#e279b3"/><path d="m256 261.036c-23.111 20.524-30.379 27.859-30.379 36.979s7.393 16.513 16.513 16.513c5.819 0 10.925-3.018 13.866-7.566 2.941 4.548 8.047 7.566 13.866 7.566 9.12 0 16.513-7.393 16.513-16.513s-7.268-16.455-30.379-36.979z" fill="#4e5a61"/><circle cx="159" cy="217" r="42" fill="#4e5a61"/><circle cx="352" cy="217" r="42" fill="#4e5a61"/><path d="m117.431 298.441c-5.705 0-11.201-1.004-16.241-2.992.294 1.398-1.944 15.459-5.81 19.254 6.653 2.407 14.019 3.739 22.051 3.739 22.545 0 34.417 9.285 34.417 39.447 0 0 6.404 23.611 20 35.569v-35.569c0-38.163-21.205-59.448-54.417-59.448z" fill="#dce6eb"/><path d="m151.848 357.888c0 39.142 31.772 69.319 104.152 69.319s104.152-30.177 104.152-69.319c0 0-29.535 30.419-104.152 30.419s-104.152-30.419-104.152-30.419z" fill="#dce6eb"/><path d="m271 79.594c0 8.284-10.989 26.59-15 56.625-4.011-30.035-15-48.341-15-56.625s6.716-15 15-15 15 6.716 15 15z" fill="#ffe07d"/><path d="m320.619 116.006c-6.839 4.676-22.367 3.899-34.619 20.213 3.269-20.353 7.852-38.255 17.687-44.978 6.839-4.676 16.173-2.922 20.849 3.917 4.675 6.838 2.921 16.172-3.917 20.848z" fill="#ffe07d"/><path d="m191.381 116.006c6.839 4.676 22.367 3.899 34.619 20.213-3.269-20.353-7.852-38.255-17.687-44.978-6.839-4.676-16.173-2.922-20.849 3.917-4.675 6.838-2.921 16.172 3.917 20.848z" fill="#ffe07d"/><path d="m140.051 32.76c-5.036 4.598-9.825 9.62-14.335 15.084 5.787-4.77 11.856-9.037 18.15-12.841z" fill="#f7f9fa"/><g fill="#bce097"><path d="m334.613 54.709 33.521-19.706c-19.915-12.037-42.088-19.44-64.761-23.49l-4.737 13.81c-7.459 21.746 16.159 41.036 35.977 29.386z"/><path d="m358.952 99.752c-.915 8.234 5.018 15.65 13.252 16.565 39.648 4.405 66.64 32.359 76.039 58.601-3.184-17.132-6.604-32.254-9.1-41.435-7.083-26.051-17.972-47.104-31.518-63.995-43.901 14.776-47.758 22.03-48.673 30.264z"/><path d="m213.364 25.323-4.737-13.81c-22.673 4.05-44.846 11.453-64.761 23.49l33.521 19.706c19.818 11.65 43.436-7.64 35.977-29.386z"/><path d="m87.33 140.169c13.262-12.178 31.005-21.468 52.466-23.852 8.234-.915 14.167-8.331 13.252-16.565-.876-7.884-4.456-14.872-43.308-28.426-6.86 12.333-16.578 26.318-20.884 42.156-1.572 5.783.489 15.231-1.526 26.687z"/></g><path d="m87.33 140.169c2.015-11.456 3.954-20.904 5.526-26.687 4.306-15.838 10.023-29.823 16.884-42.156-1.72-.6-3.504-1.212-5.366-1.839-13.546 16.892-24.435 37.944-31.518 63.995-2.496 9.18-5.915 24.302-9.1 41.434 4.312-12.036 12.335-24.427 23.574-34.747z" fill="#9cd169"/><path d="m101.19 295.449c-1.92-9.116-9.779-16.019-19.34-16.526 1.695 8.859 7.456 15.729 19.34 16.526z" fill="#ffe07d"/><path d="m101.19 295.449c-7.89-3.112-14.649-8.648-19.34-16.526-.372-.02-.74-.057-1.117-.057-11.544 0-18.666-2.147-23.278-7.718 5.254 20.189 18.498 36.526 37.925 43.554 3.866-3.795 6.265-9.079 6.265-14.924-.001-1.485-.161-2.932-.455-4.329z" fill="#ffd064"/><path d="m431.268 278.866c-10.966 0-19.944 8.445-20.825 19.184 15.173 4.582 24.855-2.354 34.378-5.316 4.388-6.393 7.67-13.692 9.724-21.586-4.611 5.571-11.733 7.718-23.277 7.718z" fill="#ffe07d"/><path d="m410.356 299.778c0 5.845 2.399 11.129 6.265 14.924 11.831-4.28 21.366-12.011 28.201-21.968-9.524 2.963-21.037 4.627-34.378 5.316-.048.572-.088 1.145-.088 1.728z" fill="#ffd064"/></g><path d="m256 512c-44.457 0-81.957-15.607-108.445-45.133-2.766-3.083-2.509-7.825.574-10.591 3.083-2.767 7.825-2.51 10.591.574 13.109 14.613 29.34 25.394 48.06 32.083-.555-5.23.72-10.489 3.711-14.949 4.289-6.395 11.897-10.121 19.834-9.72 1.567.079 3.101.316 4.585.702.506-1.447 1.163-2.854 1.97-4.199 4.093-6.822 11.419-11.061 19.12-11.061s15.027 4.238 19.12 11.061c.807 1.345 1.464 2.751 1.97 4.198 1.484-.386 3.018-.623 4.585-.702 7.941-.406 15.546 3.325 19.834 9.72 2.99 4.46 4.265 9.717 3.711 14.946 18.503-6.613 34.578-17.223 47.605-31.577 22.083-24.331 34.244-58.639 34.244-96.604v-34.384c-12.65 1.663-19.417 8.807-19.417 31.522 0 22.826-9.684 41.979-28.004 55.39-19.425 14.22-47.569 21.43-83.648 21.43-36.102 0-64.238-7.144-83.627-21.234-18.334-13.323-28.025-32.42-28.025-55.225 0-.086 0-.173 0-.26 0-.04 0-.079 0-.118-.004-22.7-6.77-29.842-19.417-31.505v34.384c0 27.385 6.325 53.111 18.29 74.395 2.03 3.611.749 8.183-2.862 10.213-3.61 2.03-8.183.749-10.213-2.862-13.225-23.524-20.214-51.791-20.214-81.746v-35.176c-36.648-3.638-62.516-33.908-62.516-74.648 0-37.072 11.856-96.065 18.203-119.411 12.86-47.301 38.888-82.527 77.361-104.7 30.873-17.791 68.898-26.813 113.02-26.813 23.292 0 45.229 2.588 65.202 7.691 4.013 1.025 6.435 5.11 5.41 9.124-1.025 4.013-5.108 6.437-9.124 5.41-2.997-.766-6.042-1.471-9.134-2.116l-2.623 7.647c-2.875 8.384.909 15.299 5.41 18.975 4.501 3.677 12.032 6.003 19.672 1.513l22.148-13.021c-2.39-1.187-4.829-2.323-7.314-3.408-3.796-1.657-5.53-6.078-3.873-9.874 1.656-3.796 6.078-5.532 9.874-3.873 48.104 20.999 79.977 59.167 94.734 113.446 6.347 23.346 18.203 82.339 18.203 119.411 0 40.74-25.867 71.01-62.516 74.648v35.176c0 41.701-13.543 79.589-38.136 106.686-26.461 29.154-63.784 44.565-107.933 44.565zm-28.659-17.555c5.158.959 10.46 1.651 15.899 2.07l-6.682-12.526c-2.096-3.927-5.277-4.658-6.987-4.745-2.718-.133-5.251 1.049-6.622 3.093-1.803 2.689-1.331 5.349-.889 6.694.818 2.492 2.725 4.49 5.098 5.344.062.024.123.047.183.07zm48.1-10.455-6.682 12.525c5.442-.42 10.746-1.112 15.908-2.073.058-.022.115-.044.174-.065 2.373-.854 4.279-2.852 5.098-5.344.442-1.346.915-4.005-.889-6.695-1.371-2.044-3.908-3.23-6.622-3.093-1.709.087-4.891.818-6.987 4.745zm-19.441-19.283c-2.461 0-4.859 1.447-6.256 3.777-.881 1.468-2.046 4.518.049 8.445l6.207 11.636 6.207-11.635c2.095-3.928.931-6.978.05-8.446-1.398-2.33-3.796-3.777-6.257-3.777zm-27.217-46.668c6.198.816 12.775 1.336 19.717 1.553v-23.886c-6.969-.19-13.537-.641-19.717-1.3zm34.717-22.333v23.885c6.942-.218 13.52-.742 19.717-1.562v-23.624c-6.18.66-12.748 1.111-19.717 1.301zm-69.435 13.002c5.879 2.682 12.462 4.893 19.717 6.61v-23.029c-7.202-1.276-13.765-2.834-19.717-4.558zm104.152-16.419v23.003c7.255-1.728 13.838-3.951 19.717-6.649v-20.913c-5.952 1.725-12.515 3.282-19.717 4.559zm-136.693-18.182c2.955 10.098 8.88 18.667 17.542 25.555v-17.064c-7.054-2.817-12.873-5.765-17.542-8.491zm171.411 8.491v16.946c8.57-6.854 14.46-15.363 17.446-25.382-4.654 2.711-10.439 5.637-17.446 8.436zm-104.152-3.304c6.11.705 12.678 1.197 19.717 1.404v-21.101c-7.08-.244-13.646-.824-19.717-1.634zm34.717-19.693v21.094c6.072-.183 12.73-.607 19.717-1.411v-21.277c-6.055.791-12.621 1.356-19.717 1.594zm34.717-4.181v21.582c6.518-1.247 13.15-2.871 19.717-4.97v-22.092c-5.584 1.91-12.13 3.843-19.717 5.48zm-104.152 16.599c5.704 1.821 12.269 3.548 19.717 4.981v-21.666c-7.562-1.651-14.116-3.593-19.717-5.503zm138.87-27.852v22.111c10.054-4.575 16.435-9.128 19.563-11.647-1.211-12.12-9.204-13.248-11.931-13.271-1.162.148-4.544 1.532-7.632 2.807zm-173.405 10.486c3.138 2.523 9.51 7.063 19.536 11.625v-22.168c-3.125-1.27-6.47-2.609-7.628-2.75-2.705.023-10.609 1.153-11.908 13.293zm11.991-28.293c3.714 0 7.735 1.635 13.822 4.111 13.108 5.331 35.048 14.254 70.656 14.254 36.288 0 57.926-8.936 70.855-14.275 5.962-2.462 9.902-4.089 13.624-4.089 5.951 0 11.832 2.067 16.428 5.726 5.971-14.324 18.322-21.145 37.662-21.145 3.385 0 6.801-.306 10.188-.927-1.248-3.232-1.901-6.695-1.901-10.236 0-15.667 12.746-28.412 28.412-28.412 10.368 0 14.43-1.948 16.648-4.079 1.083-5 1.668-10.45 1.668-16.362 0-20.728-4.055-49.448-8.608-74.049-8.708-23.622-33.518-49.097-69.6-53.106-12.331-1.37-21.248-12.516-19.878-24.847.584-5.26 2.361-11.488 11.107-17.807 6.41-4.63 16.73-9.484 32.111-15.068-7.903-8.451-16.81-15.883-26.702-22.275l-29.601 17.401c-11.764 6.916-26.195 5.806-36.762-2.826-10.569-8.633-14.537-22.551-10.109-35.459l1.845-5.378c-11.915-1.67-24.417-2.512-37.386-2.512-13.425 0-25.872.843-37.419 2.418l1.877 5.472c4.428 12.908.459 26.826-10.109 35.458s-24.999 9.741-36.762 2.826l-29.7-17.459c-10.231 6.676-19.02 14.232-26.562 22.344 34.964 12.667 41.828 20.712 43.178 32.865 1.37 12.331-7.547 23.477-19.878 24.847-4.122.458-7.825-2.509-8.282-6.626-.458-4.117 2.509-7.825 6.626-8.282 4.11-.457 7.083-4.172 6.626-8.282-.409-3.681-1.017-9.181-38.486-22.23-13.538 18.236-21.899 38.285-27.015 57.1-.147.543-.299 1.107-.453 1.694 7.799-7.674 16.897-14.172 26.803-18.959 3.73-1.803 8.213-.24 10.017 3.489 1.802 3.729.24 8.214-3.489 10.017-19.305 9.33-34.955 26.198-41.947 45.185-4.554 24.602-8.608 53.322-8.608 74.05 0 5.525.629 11.133 1.911 16.587 2.271 2.041 6.406 3.854 16.406 3.854 15.667 0 28.412 12.746 28.412 28.412 0 3.581-.668 7.083-1.945 10.347 3.227.535 6.635.816 10.231.816 19.35 0 31.706 6.831 37.673 21.17 4.586-3.677 10.46-5.753 16.416-5.753zm-99.86-40.506c4.963 8.273 11.975 15.259 21.16 19.741.865-1.797 1.324-3.78 1.324-5.817 0-7.396-6.017-13.412-13.412-13.412-2.866 0-5.95-.107-9.072-.512zm368.943-.035c-3.212.433-6.391.547-9.337.547-7.396 0-13.412 6.017-13.412 13.412 0 1.938.415 3.828 1.201 5.555 8.466-4.13 16.055-10.586 21.548-19.514zm-35.643-207.493c-37.532 13.065-38.146 18.571-38.555 22.254-.457 4.11 2.516 7.826 6.626 8.282 24.586 2.731 44.748 13.995 59.365 28.424-.167-.638-.331-1.25-.49-1.836-5.971-21.964-14.977-41.034-26.946-57.124zm-246.09-43.202 22.317 13.12c7.639 4.491 15.171 2.164 19.672-1.513 4.5-3.676 8.285-10.591 5.41-18.974l-2.672-7.79c-16.997 3.492-31.817 8.692-44.727 15.157zm110.995 286.904c-5.06 0-9.875-1.574-13.866-4.406-3.991 2.832-8.807 4.406-13.866 4.406-13.241 0-24.013-10.772-24.013-24.013 0-12.857 9.497-21.804 32.899-42.587 2.842-2.522 7.119-2.522 9.961 0 23.402 20.783 32.899 29.73 32.899 42.587-.001 13.241-10.773 24.013-24.014 24.013zm-13.866-22.566c2.545 0 4.916 1.291 6.298 3.428 1.676 2.591 4.505 4.138 7.568 4.138 4.97 0 9.013-4.043 9.013-9.013 0-5.242-5.564-11.386-22.879-26.927-17.315 15.541-22.879 21.685-22.879 26.927 0 4.97 4.043 9.013 9.013 9.013 3.063 0 5.893-1.547 7.568-4.138 1.382-2.138 3.753-3.428 6.298-3.428zm118.033-5.581c-4.758 0-9.443-1.448-13.729-4.313-2.812-1.88-5.334-4.319-7.471-7.132-2.137 2.813-4.659 5.252-7.471 7.132-7.147 4.777-15.409 5.616-23.264 2.363-7.854-3.253-13.103-9.689-14.779-18.121-.659-3.317-.718-6.826-.24-10.326-3.5.479-7.009.419-10.326-.24-8.432-1.676-14.867-6.924-18.121-14.778-3.253-7.854-2.414-16.117 2.363-23.264 1.88-2.812 4.319-5.334 7.132-7.471-2.813-2.137-5.253-4.66-7.132-7.472-4.777-7.147-5.617-15.409-2.363-23.263s9.689-13.103 18.121-14.779c3.317-.66 6.826-.718 10.327-.24-.479-3.5-.42-7.009.24-10.326 1.675-8.432 6.924-14.867 14.778-18.121s16.116-2.415 23.264 2.363c2.812 1.88 5.334 4.319 7.471 7.132 2.137-2.813 4.659-5.252 7.471-7.132 7.148-4.777 15.41-5.616 23.264-2.363s13.103 9.688 14.778 18.12c.66 3.318.718 6.826.24 10.327 3.5-.478 7.009-.419 10.326.24 8.432 1.676 14.868 6.924 18.121 14.779s2.414 16.116-2.363 23.263c-1.879 2.812-4.319 5.334-7.133 7.472 2.814 2.137 5.253 4.659 7.133 7.471 4.777 7.147 5.617 15.409 2.363 23.264-3.253 7.854-9.689 13.103-18.121 14.778-3.317.659-6.826.717-10.327.24.479 3.501.42 7.009-.24 10.327-1.676 8.432-6.924 14.867-14.778 18.12-3.145 1.304-6.356 1.95-9.534 1.95zm-12.502-26.588c1.417 4.055 3.985 7.717 7.108 9.805 2.972 1.986 5.978 2.306 9.188.976s5.11-3.68 5.807-7.186c.733-3.691-.044-8.105-1.917-11.98-5.922 4.167-12.776 7.089-20.186 8.385zm-37.583-8.386c-1.872 3.875-2.65 8.289-1.917 11.98.697 3.506 2.596 5.857 5.807 7.187 3.21 1.33 6.215 1.01 9.188-.976 3.124-2.088 5.691-5.75 7.108-9.805-7.409-1.296-14.263-4.218-20.186-8.386zm28.885-5.862c19.472 0 35.313-15.842 35.313-35.313 0-19.472-15.842-35.313-35.313-35.313-19.472 0-35.313 15.841-35.313 35.313s15.841 35.313 35.313 35.313c-.001 0 0 0 0 0zm41.175-6.428c3.875 1.872 8.291 2.65 11.98 1.916 3.506-.697 5.856-2.596 7.186-5.806s1.011-6.216-.976-9.188c-2.088-3.124-5.75-5.691-9.805-7.108-1.295 7.409-4.217 14.263-8.385 20.186zm-90.736-20.187c-4.055 1.417-7.717 3.985-9.805 7.108-1.986 2.972-2.306 5.978-.976 9.188s3.68 5.109 7.186 5.806c3.694.735 8.106-.044 11.98-1.916-4.167-5.922-7.089-12.776-8.385-20.186zm90.736-37.583c4.167 5.922 7.089 12.776 8.386 20.187 4.055-1.418 7.717-3.985 9.805-7.109 1.986-2.972 2.306-5.977.976-9.188-1.33-3.21-3.681-5.11-7.187-5.807-3.688-.734-8.105.046-11.98 1.917zm-91.43-2.19c-1 0-1.972.089-2.9.273-3.506.697-5.857 2.596-7.187 5.807-1.33 3.21-1.011 6.216.976 9.188 2.087 3.124 5.75 5.691 9.805 7.109 1.296-7.41 4.219-14.265 8.386-20.187-2.901-1.401-6.104-2.19-9.08-2.19zm58.953-18.486c7.41 1.296 14.264 4.218 20.187 8.386 1.872-3.875 2.65-8.289 1.917-11.98-.697-3.506-2.596-5.856-5.807-7.186-3.211-1.331-6.216-1.011-9.188.975-3.124 2.087-5.691 5.75-7.109 9.805zm-29.906-11.584c-1.237 0-2.495.268-3.787.803-3.21 1.33-5.11 3.68-5.807 7.186-.733 3.691.045 8.105 1.917 11.98 5.921-4.166 12.778-7.089 20.186-8.385-1.417-4.055-3.985-7.718-7.108-9.806-1.776-1.187-3.564-1.778-5.401-1.778zm-151.258 137.294c-4.758 0-9.443-1.448-13.729-4.313-2.812-1.88-5.334-4.319-7.471-7.132-2.137 2.813-4.659 5.252-7.471 7.132-7.147 4.777-15.409 5.616-23.264 2.363-7.854-3.253-13.103-9.688-14.778-18.12-.66-3.318-.718-6.827-.24-10.327-3.501.479-7.009.419-10.327-.24-8.432-1.676-14.867-6.924-18.121-14.778-3.253-7.854-2.414-16.116 2.363-23.264 1.88-2.812 4.319-5.334 7.133-7.471-2.814-2.137-5.253-4.659-7.133-7.472-4.777-7.147-5.617-15.409-2.363-23.263s9.689-13.103 18.121-14.779c3.317-.659 6.827-.717 10.326-.24-.479-3.5-.42-7.009.24-10.327 1.676-8.432 6.924-14.867 14.778-18.12 7.855-3.254 16.115-2.415 23.264 2.363 2.812 1.88 5.334 4.319 7.471 7.132 2.137-2.813 4.659-5.252 7.471-7.132 7.148-4.777 15.41-5.616 23.264-2.363s13.103 9.688 14.778 18.121c.66 3.317.718 6.826.24 10.326 3.501-.478 7.008-.419 10.327.24 8.432 1.676 14.867 6.924 18.121 14.779s2.414 16.116-2.363 23.263c-1.879 2.812-4.319 5.334-7.132 7.472 2.813 2.137 5.252 4.659 7.132 7.471 4.777 7.147 5.617 15.409 2.363 23.264-3.253 7.854-9.689 13.103-18.121 14.778-3.317.659-6.825.717-10.326.24.479 3.501.419 7.009-.24 10.326-1.676 8.432-6.924 14.868-14.779 18.121-3.145 1.304-6.356 1.95-9.534 1.95zm-12.502-26.588c1.417 4.055 3.985 7.717 7.108 9.805 2.972 1.986 5.978 2.306 9.188.976s5.11-3.681 5.807-7.187c.734-3.691-.044-8.105-1.917-11.98-5.922 4.168-12.776 7.09-20.186 8.386zm-37.583-8.386c-1.872 3.875-2.65 8.289-1.917 11.98.697 3.506 2.596 5.856 5.807 7.186 3.21 1.33 6.217 1.01 9.188-.976 3.124-2.088 5.691-5.75 7.108-9.805-7.409-1.295-14.263-4.217-20.186-8.385zm28.885-5.862c19.472 0 35.313-15.842 35.313-35.313 0-19.472-15.841-35.313-35.313-35.313-19.471 0-35.313 15.841-35.313 35.313s15.841 35.313 35.313 35.313zm41.175-6.428c3.875 1.872 8.29 2.65 11.98 1.916 3.506-.697 5.856-2.596 7.186-5.806s1.011-6.216-.976-9.188c-2.088-3.124-5.75-5.691-9.805-7.108-1.295 7.409-4.217 14.263-8.385 20.186zm-90.736-20.187c-4.055 1.417-7.717 3.985-9.805 7.108-1.986 2.972-2.306 5.978-.976 9.188s3.68 5.109 7.186 5.806c3.693.735 8.106-.044 11.98-1.916-4.167-5.922-7.089-12.776-8.385-20.186zm90.736-37.583c4.167 5.922 7.089 12.777 8.386 20.187 4.055-1.418 7.717-3.985 9.805-7.109 1.986-2.972 2.306-5.977.976-9.188-1.33-3.21-3.681-5.11-7.187-5.807-3.691-.733-8.105.045-11.98 1.917zm-91.43-2.19c-1 0-1.973.089-2.9.273-3.506.697-5.857 2.596-7.187 5.807-1.33 3.21-1.011 6.216.976 9.188 2.088 3.124 5.75 5.691 9.805 7.109 1.296-7.41 4.218-14.264 8.386-20.187-2.901-1.401-6.104-2.19-9.08-2.19zm29.047-30.07c-1.237 0-2.495.268-3.787.803-3.21 1.33-5.11 3.68-5.807 7.186-.733 3.691.044 8.105 1.917 11.98 5.922-4.167 12.777-7.089 20.187-8.386-1.417-4.055-3.985-7.718-7.108-9.806-1.777-1.186-3.565-1.777-5.402-1.777zm29.906 11.584c7.408 1.296 14.265 4.22 20.186 8.385 1.872-3.875 2.65-8.289 1.917-11.98-.697-3.506-2.596-5.856-5.807-7.186-3.212-1.331-6.216-1.011-9.188.975-3.123 2.088-5.69 5.751-7.108 9.806zm88.135 4.247c-4.411 0-8-3.589-8-8s3.589-8 8-8 8 3.589 8 8-3.589 8-8 8zm29.998-28.698c-.984 0-1.98-.194-2.93-.598-3.174-1.348-5.02-4.688-4.473-8.092 3.348-20.841 8.192-41.32 20.859-49.98 10.242-7.002 24.271-4.367 31.273 5.875 7.001 10.242 4.366 24.271-5.875 31.273-3.051 2.085-6.684 3.221-10.529 4.423-7.187 2.246-15.333 4.792-22.325 14.103-1.452 1.931-3.696 2.996-6 2.996zm26.139-47.599c-1.496 0-2.956.448-4.217 1.311-4.673 3.195-7.985 11.228-10.302 19.536 4.509-2.252 8.757-3.58 12.23-4.665 2.746-.858 5.338-1.668 6.538-2.489 3.414-2.334 4.292-7.01 1.958-10.424-1.131-1.654-2.838-2.768-4.807-3.138-.466-.087-.934-.131-1.4-.131zm-86.135 47.599c-2.305 0-4.548-1.064-6-2.997-6.993-9.312-15.138-11.857-22.325-14.103-3.846-1.202-7.479-2.337-10.529-4.423-10.241-7.002-12.877-21.031-5.875-31.273s21.032-12.876 31.273-5.875c12.667 8.66 17.511 29.14 20.859 49.98.547 3.405-1.299 6.744-4.473 8.092-.949.404-1.945.599-2.93.599zm-30.388-33.906c1.2.82 3.793 1.63 6.538 2.489 3.473 1.085 7.721 2.413 12.23 4.665-2.317-8.308-5.629-16.341-10.302-19.536-1.654-1.131-3.651-1.549-5.618-1.18-1.969.37-3.676 1.484-4.807 3.138-2.333 3.414-1.455 8.09 1.959 10.424zm60.386 33.905c-3.758 0-6.937-2.782-7.434-6.507-2.306-17.268-7.055-30.572-10.522-40.287-2.638-7.389-4.543-12.728-4.543-17.331 0-12.407 10.093-22.5 22.5-22.5s22.5 10.093 22.5 22.5c0 4.604-1.906 9.942-4.543 17.331-3.467 9.714-8.217 23.019-10.522 40.287-.499 3.726-3.678 6.507-7.436 6.507zm0-71.625c-4.136 0-7.5 3.365-7.5 7.5 0 2.007 1.866 7.233 3.67 12.288 1.18 3.305 2.499 7.001 3.83 11.114 1.331-4.113 2.65-7.809 3.83-11.114 1.805-5.055 3.67-10.281 3.67-12.288 0-4.135-3.364-7.5-7.5-7.5z"/></g><g transform="matrix(0.05744663253426552 -0.033258575946092606 0.033258575946092606 0.05744663253426552 118.18317413330078 81.8438949584961)" id="L1_1"><path d="m387.069 310.941c-19.456 0-194.922 0-257.138 0 0 15.193-10 33.607-10 42.308 0 55.209 29.901 101.576 79.124 117.676.056-.088 33.619 8.782 49.445 8.782s50.273-7.335 50.273-7.335c33.147-7.791 51.931-24.992 72.807-48.254 10.181-20.916 15.489-45.099 15.489-70.869 0-10.833 0-27.187 0-42.308z" fill="#f7f9fa"/><path d="m209.055 470.925c-49.222-16.1-79.124-62.467-79.124-117.676 0-8.701 0-27.115 0-42.308-9.88 0-16.91 0-20 0v42.308c0 69.354 38.407 127.242 106.96 140.764z" fill="#dce6eb"/><path d="m144.348 350.388c-4.736-9.723-11.872-19.447-34.417-19.447v-20h34.417z" fill="#b9c3cd"/><path d="m352.652 310.941h34.417v20c-22.545 0-29.681 9.723-34.417 19.447z" fill="#b9c3cd"/><path d="m288.773 472.372-8.664 21.642c43.081-8.498 74.252-34.519 91.471-69.895-20.875 23.261-49.659 40.461-82.807 48.253z" fill="#dce6eb"/><path d="m235.676 472.96c-6.149-11.526-20.662-10.939-26.455-2.299-.058.087-.109.176-.165.264 8.363 4.586 19.617 7.376 30.543 5.639-.667-1.249-3.314-2.462-3.923-3.604z" fill="#ffe07d"/><path d="m209.055 470.925c-5.481 8.536-1.017 19.739 7.836 23.088 9.915 1.956 20.458 2.987 31.609 2.987 0 0-1.809-12.314-10.902-20.436-10.105-.804-19.64-2.727-28.543-5.639z" fill="#ffd064"/><path d="m288.773 472.372c-.289-.58-.619-1.151-.994-1.71-5.793-8.64-20.307-9.227-26.455 2.299-.605 1.134-3.273 2.386-3.975 3.703 11.25 2.389 22.597.639 31.424-4.292z" fill="#ffe07d"/><path d="m288.773 472.372c-9.479 2.228-19.316 3.68-29.424 4.291-8.419 8.023-10.849 20.337-10.849 20.337 11.151 0 21.694-1.031 31.609-2.987 8.36-3.163 12.811-13.331 8.664-21.641z" fill="#ffd064"/><path d="m248.5 479.707c3.649 0 10.849-3.044 10.849-3.044.702-1.316 1.37-2.568 1.975-3.703 6.149-11.526-2.422-23.253-12.824-23.253s-18.973 11.727-12.824 23.253c.609 1.142 1.256 2.354 1.922 3.604 0 0 7.198 3.143 10.902 3.143z" fill="#bce097"/><path d="m248.5 477c-3.704 0-7.337-.153-10.902-.436 4.912 9.208 10.902 20.436 10.902 20.436s6.198-11.618 10.849-20.337c-3.584.216-7.2.337-10.849.337z" fill="#9cd169"/><path d="m387.069 295.941c24.589 0 44.327-13.388 59.976-32.293 1.669-6.413 2.539-13.211 2.539-20.223 0-21.39-4.167-50.865-8.841-76.008l-40.617-105.43c-11.484-14.321-24.878-25.651-39.492-34.484l-64.761-23.49c-15.747-2.813-31.734-4.013-47.373-4.013-15.638 0-31.626 1.2-47.373 4.013l-64.761 23.49c-6.294 3.804-12.363 8.072-18.15 12.841-5.828 7.06-11.183 14.865-15.976 23.482l-26.41 68.843c-5.88 33.422-11.414 83.972-11.414 110.756 0 11.333 4.947 52.516 45.516 52.516 33.212 0 54.417 16.285 54.417 54.447h188.303c0-38.162 3.872-54.447 34.417-54.447z" fill="#f7f9fa"/><path d="m73.232 275.366c.377 0 .745-3.963 1.117-3.943-4.36-7.323-6.934-16.665-6.934-27.998 0-26.785 6.534-77.335 12.414-110.756-14.873 4.95-19.262 22.711-23.573 34.748-4.673 25.143-8.841 54.618-8.841 76.009 0 7.012.87 13.81 2.539 20.223 4.612 5.57 11.734 11.717 23.278 11.717z" fill="#dce6eb"/><path d="m118.216 40.344c-7.649 6.304-14.804 13.49-21.342 21.643 1.337 3.803 1.337 3.803 5.366 1.839 4.793-8.617 10.148-16.422 15.976-23.482z" fill="#dce6eb"/><path d="m402.943 290.551c-5.039.26-10.322.39-15.874.39-30.545 0-34.417 21.285-34.417 59.447 0-30.162 11.872-39.447 34.417-39.447 8.032 0 15.398-1.332 22.051-3.739-3.866-3.795-1.265-9.079-1.265-14.924.001-.583-4.959-1.156-4.912-1.727z" fill="#dce6eb"/><path d="m302.519 210.231c-14.655.005-30.664-12.881-24.458-27.864s26.638-12.775 36.997-2.409l.001-.001c-10.366-10.359-12.574-30.791 2.409-36.997s27.869 9.803 27.864 24.458h.001c-.005-14.655 12.881-30.664 27.864-24.458s12.775 26.638 2.409 36.997l.001.001c10.359-10.366 30.791-12.574 36.997 2.409s-9.803 27.869-24.458 27.864v.001c14.655-.005 30.664 12.881 24.458 27.864s-26.638 12.775-36.997 2.409l-.001.001c10.366 10.359 12.574 30.791-2.409 36.997s-27.869-9.803-27.864-24.458h-.001c.005 14.655-12.881 30.664-27.864 24.458s-12.775-26.638-2.409-36.997l-.001-.001c-10.359 10.366-30.791 12.574-36.997-2.409s9.803-27.868 24.458-27.865z" fill="#e279b3"/><path d="m194.481 210.231c14.655.005 30.664-12.881 24.458-27.864s-26.638-12.775-36.997-2.409l-.001-.001c10.366-10.359 12.574-30.791-2.409-36.997s-27.869 9.803-27.864 24.458h-.001c.005-14.655-12.881-30.664-27.864-24.458s-12.775 26.638-2.409 36.997l-.001.001c-10.359-10.366-30.791-12.574-36.997 2.409s9.803 27.869 24.458 27.864v.001c-14.655-.005-30.664 12.881-24.458 27.864s26.638 12.775 36.997 2.409l.001.001c-10.366 10.359-12.574 30.791 2.409 36.997s27.869-9.803 27.864-24.458h.001c-.005 14.655 12.881 30.664 27.864 24.458s12.775-26.638 2.409-36.997l.001-.001c10.359 10.366 30.791 12.574 36.997-2.409s-9.803-27.868-24.458-27.865z" fill="#e279b3"/><path d="m243.486 258.008c-18.39 16.488-24.843 23.509-25.334 31.494-.518 8.428 5.174 15.801 13.491 17.263 7.031 1.236 13.422-1.989 16.858-7.303 3.436 5.314 9.826 8.538 16.858 7.303 8.317-1.461 14.009-8.834 13.491-17.263-.491-7.985-6.945-15.006-25.334-31.494-2.853-2.557-7.179-2.557-10.03 0z" fill="#4e5a61"/><circle cx="151" cy="210" r="42" fill="#4e5a61"/><circle cx="345" cy="210" r="42" fill="#4e5a61"/><path d="m109.931 290.941c-5.705 0-11.201-1.004-16.241-2.992.294 1.398-1.944 15.459-5.81 19.254 6.653 2.407 14.019 3.739 22.051 3.739 22.545 0 34.417 9.285 34.417 39.447 0 0 6.404 23.611 20 35.569v-35.569c0-38.163-21.205-59.448-54.417-59.448z" fill="#dce6eb"/><path d="m144.348 350.388c0 39.142 31.772 69.319 104.152 69.319s104.152-30.177 104.152-69.319c0 0-29.535 30.419-104.152 30.419s-104.152-30.419-104.152-30.419z" fill="#dce6eb"/><g fill="#ffe07d"><path d="m263.5 72.094c0 6.327-6.773 25.984-11.483 47.191-.837 3.769-6.197 3.769-7.034 0-4.71-21.207-11.483-40.864-11.483-47.191 0-8.284 6.716-15 15-15s15 6.716 15 15z"/><circle cx="248" cy="156" r="8"/><path d="m313.119 108.506c-5.286 3.614-19.675 10.956-30.718 21.014-2.622 2.389-6.767-.083-5.915-3.526 4.264-17.25 11.953-36.955 19.702-42.253 6.839-4.676 16.173-2.922 20.849 3.917 4.674 6.838 2.92 16.172-3.918 20.848z"/><path d="m183.881 108.506c5.286 3.614 19.675 10.956 30.718 21.014 2.622 2.389 6.767-.083 5.915-3.526-4.264-17.25-11.953-36.955-19.702-42.253-6.839-4.676-16.173-2.922-20.849 3.917-4.674 6.838-2.92 16.172 3.918 20.848z"/></g><path d="m132.551 25.26c-5.036 4.598-9.825 9.62-14.335 15.084 5.787-4.77 11.856-9.037 18.15-12.841z" fill="#f7f9fa"/><path d="m327.113 47.209 33.521-19.706c-19.915-12.037-42.088-19.44-64.761-23.49l-4.737 13.81c-7.459 21.746 16.159 41.036 35.977 29.386z" fill="#bce097"/><path d="m351.452 92.252c-.915 8.234 5.018 15.65 13.252 16.565 39.648 4.405 66.64 32.359 76.039 58.601-3.184-17.132-6.604-32.254-9.1-41.435-7.083-26.051-17.972-47.104-31.518-63.995-43.901 14.776-47.758 22.03-48.673 30.264z" fill="#bce097"/><path d="m205.864 17.823-4.737-13.81c-22.673 4.05-44.846 11.453-64.761 23.49l33.521 19.706c19.818 11.65 43.436-7.64 35.977-29.386z" fill="#bce097"/><path d="m79.83 132.669c13.262-12.178 31.005-21.468 52.466-23.852 8.234-.915 14.167-8.331 13.252-16.565-.876-7.884-4.456-14.872-43.308-28.426-6.86 12.333-16.578 26.318-20.884 42.156-1.572 5.783.489 15.231-1.526 26.687z" fill="#bce097"/><path d="m79.83 132.669c2.015-11.456 3.954-20.904 5.526-26.687 4.306-15.838 10.023-29.823 16.884-42.156-1.72-.6-3.504-1.212-5.366-1.839-13.546 16.892-24.435 37.944-31.518 63.995-2.496 9.18-5.915 24.302-9.1 41.434 4.312-12.036 12.335-24.427 23.574-34.747z" fill="#9cd169"/><path d="m93.69 287.949c-1.92-9.116-9.779-16.019-19.34-16.526 1.695 8.859 7.456 15.729 19.34 16.526z" fill="#ffe07d"/><path d="m93.69 287.949c-7.89-3.112-14.649-8.648-19.34-16.526-.372-.02-.74-.057-1.117-.057-11.544 0-18.666-2.147-23.278-7.718 5.254 20.189 18.498 36.526 37.925 43.554 3.866-3.795 6.265-9.079 6.265-14.924-.001-1.485-.161-2.932-.455-4.329z" fill="#ffd064"/><path d="m423.768 271.366c-10.966 0-19.944 8.445-20.825 19.184 15.173 4.582 24.855-2.354 34.378-5.316 4.388-6.393 7.67-13.692 9.724-21.586-4.611 5.571-11.733 7.718-23.277 7.718z" fill="#ffe07d"/><path d="m402.856 292.278c0 5.845 2.399 11.129 6.265 14.924 11.831-4.28 21.366-12.011 28.201-21.968-9.524 2.963-21.037 4.627-34.378 5.316-.048.572-.088 1.145-.088 1.728z" fill="#ffd064"/><path d="m248.5 424.207c-4.142 0-7.5-3.358-7.5-7.5v-28.501c-6.969-.19-13.537-.641-19.717-1.3v27.369c0 4.142-3.358 7.5-7.5 7.5s-7.5-3.358-7.5-7.5v-29.486c-7.202-1.277-13.765-2.834-19.717-4.558v23.922c0 4.142-3.358 7.5-7.5 7.5s-7.5-3.358-7.5-7.5v-29.055c-21.898-8.747-31.878-18.744-32.598-19.485-2.886-2.972-2.815-7.72.156-10.605 2.972-2.884 7.72-2.815 10.605.156.038.038 6.863 6.802 21.836 13.615v-27.054c0-4.142 3.358-7.5 7.5-7.5s7.5 3.358 7.5 7.5v32.794c5.704 1.821 12.269 3.548 19.717 4.981v-26.949c0-4.142 3.358-7.5 7.5-7.5s7.5 3.358 7.5 7.5v29.243c6.11.705 12.678 1.197 19.717 1.404v-25.473c0-4.142 3.358-7.5 7.5-7.5s7.5 3.358 7.5 7.5v25.475c7.021-.202 13.591-.684 19.717-1.382v-29.267c0-4.142 3.358-7.5 7.5-7.5s7.5 3.358 7.5 7.5v26.992c7.352-1.407 13.909-3.119 19.717-4.976v-32.843c0-4.142 3.358-7.5 7.5-7.5s7.5 3.358 7.5 7.5v27.093c15.01-6.824 21.703-13.518 21.836-13.655 2.886-2.973 7.634-3.042 10.605-.156s3.042 7.634.156 10.605c-.72.741-10.7 10.739-32.598 19.485v29.055c0 4.142-3.358 7.5-7.5 7.5s-7.5-3.358-7.5-7.5v-23.921c-5.953 1.724-12.515 3.281-19.717 4.558v29.486c0 4.142-3.358 7.5-7.5 7.5s-7.5-3.358-7.5-7.5v-27.369c-6.181.66-12.749 1.11-19.717 1.3v28.501c.002 4.143-3.356 7.501-7.498 7.501z" fill="#b9c3cd"/><path d="m350.931 325.901c-4.777-4.475-11.321-7.042-17.952-7.042-3.722 0-7.661 1.627-13.624 4.089-12.929 5.339-34.567 14.275-70.855 14.275-35.608 0-57.548-8.923-70.656-14.254-6.087-2.476-10.108-4.111-13.822-4.111-1.915 0-3.832.205-5.713.607l4.552 14.456c.411-.043.777-.061 1.077-.063 1.237.151 4.963 1.667 8.256 3.005 13.198 5.368 37.766 15.359 76.307 15.359 39.264 0 63.539-10.025 76.581-15.411 3.18-1.313 6.779-2.8 7.986-2.953 2.954.025 12.085 1.345 12.085 16.527 0 39.287-35.228 61.819-96.652 61.819-39.988 0-68.861-9.502-84.152-26.905l-2 10.447 2 9.832c.176.13.347.263.524.392 19.389 14.09 47.525 21.234 83.627 21.234 36.079 0 64.223-7.21 83.648-21.43 18.32-13.41 28.004-32.563 28.004-55.39 0-13.095-5.015-20.542-9.221-24.483z" fill="#bce097"/><path d="m151.848 350.748c0-13.943 7.374-16.443 11.012-16.824-1.018-5.279-2.549-10.103-4.552-14.456-11.403 2.437-21.46 12.373-21.46 31.281 0 22.584 9.51 41.528 27.5 54.833v-20.279c-8.196-9.33-12.5-20.924-12.5-34.555z" fill="#9cd169"/></g><g transform="matrix(0.1171875 0 0 0.1171875 0.9999998807907104 182)" id="L1_2"><g><path d="m394.569 318.441c-19.456 0-194.922 0-257.138 0 0 15.193-10 33.607-10 42.308 0 55.209 29.901 101.576 79.124 117.676.056-.088 33.619 8.782 49.445 8.782s50.273-7.335 50.273-7.335c33.147-7.791 51.931-24.992 72.807-48.254 10.181-20.916 15.489-45.099 15.489-70.869 0-10.833 0-27.187 0-42.308z" fill="#f7f9fa"/><path d="m216.555 478.425c-49.222-16.1-79.124-62.467-79.124-117.676 0-8.701 0-27.115 0-42.308-9.88 0-16.91 0-20 0v42.308c0 69.354 38.407 127.242 106.96 140.764z" fill="#dce6eb"/><path d="m151.848 357.888c-4.736-9.723-11.872-19.447-34.417-19.447v-20h34.417z" fill="#b9c3cd"/><path d="m360.152 318.441h34.417v20c-22.545 0-29.681 9.723-34.417 19.447z" fill="#b9c3cd"/><path d="m296.273 479.872-8.664 21.642c43.081-8.498 74.252-34.519 91.471-69.895-20.875 23.261-49.659 40.461-82.807 48.253z" fill="#dce6eb"/><path d="m243.176 480.46c-6.149-11.526-20.662-10.939-26.455-2.299-.058.087-.109.176-.165.264 8.363 4.586 19.617 7.376 30.543 5.639-.667-1.249-3.314-2.462-3.923-3.604z" fill="#ffe07d"/><path d="m216.555 478.425c-5.481 8.536-1.017 19.739 7.836 23.088 9.915 1.956 20.458 2.987 31.609 2.987 0 0-1.809-12.314-10.902-20.436-10.105-.804-19.64-2.727-28.543-5.639z" fill="#ffd064"/><path d="m296.273 479.872c-.289-.58-.619-1.151-.994-1.71-5.793-8.64-20.307-9.227-26.455 2.299-.605 1.134-3.273 2.386-3.975 3.703 11.25 2.389 22.597.639 31.424-4.292z" fill="#ffe07d"/><path d="m296.273 479.872c-9.479 2.228-19.316 3.68-29.424 4.291-8.419 8.023-10.849 20.337-10.849 20.337 11.151 0 21.694-1.031 31.609-2.987 8.36-3.163 12.811-13.331 8.664-21.641z" fill="#ffd064"/><path d="m256 487.207c3.649 0 10.849-3.044 10.849-3.044.702-1.316 1.37-2.568 1.975-3.703 6.149-11.526-2.422-23.253-12.824-23.253s-18.973 11.727-12.824 23.253c.609 1.142 1.256 2.354 1.922 3.604 0 0 7.198 3.143 10.902 3.143z" fill="#bce097"/><path d="m256 484.5c-3.704 0-7.337-.153-10.902-.436 4.912 9.208 10.902 20.436 10.902 20.436s6.198-11.618 10.849-20.337c-3.584.216-7.2.337-10.849.337z" fill="#9cd169"/><path d="m394.569 303.441c24.589 0 44.327-13.388 59.976-32.293 1.669-6.413 2.539-13.211 2.539-20.223 0-21.39-4.167-50.865-8.841-76.008l-40.617-105.43c-11.484-14.321-24.878-25.651-39.492-34.484l-64.761-23.49c-15.747-2.813-31.734-4.013-47.373-4.013-15.638 0-31.626 1.2-47.373 4.013l-64.761 23.49c-6.294 3.804-12.363 8.072-18.15 12.841-5.828 7.06-11.183 14.865-15.976 23.482l-26.41 68.843c-5.88 33.422-11.414 83.972-11.414 110.756 0 11.333 4.947 52.516 45.516 52.516 33.212 0 54.417 16.285 54.417 54.447h188.303c0-38.162 3.872-54.447 34.417-54.447z" fill="#f7f9fa"/><path d="m80.732 282.866c.377 0 .745-3.963 1.117-3.943-4.36-7.323-6.934-16.665-6.934-27.998 0-26.785 6.534-77.335 12.414-110.756-14.873 4.95-19.262 22.711-23.573 34.748-4.673 25.143-8.841 54.618-8.841 76.009 0 7.012.87 13.81 2.539 20.223 4.612 5.57 11.734 11.717 23.278 11.717z" fill="#dce6eb"/><path d="m125.716 47.844c-7.649 6.304-14.804 13.49-21.342 21.643 1.337 3.803 1.337 3.803 5.366 1.839 4.793-8.617 10.148-16.422 15.976-23.482z" fill="#dce6eb"/><path d="m410.443 298.051c-5.039.26-10.322.39-15.874.39-30.545 0-34.417 21.285-34.417 59.447 0-30.162 11.872-39.447 34.417-39.447 8.032 0 15.398-1.332 22.051-3.739-3.866-3.795-1.265-9.079-1.265-14.924.001-.583-4.959-1.156-4.912-1.727z" fill="#dce6eb"/><path d="m310.019 217.731c-14.655.005-30.664-12.881-24.458-27.864s26.638-12.775 36.997-2.409l.001-.001c-10.366-10.359-12.574-30.791 2.409-36.997s27.869 9.803 27.864 24.458h.001c-.005-14.655 12.881-30.664 27.864-24.458s12.775 26.638 2.409 36.997l.001.001c10.359-10.366 30.791-12.574 36.997 2.409s-9.803 27.869-24.458 27.864v.001c14.655-.005 30.664 12.881 24.458 27.864s-26.638 12.775-36.997 2.409l-.001.001c10.366 10.359 12.574 30.791-2.409 36.997s-27.869-9.803-27.864-24.458h-.001c.005 14.655-12.881 30.664-27.864 24.458s-12.775-26.638-2.409-36.997l-.001-.001c-10.359 10.366-30.791 12.574-36.997-2.409s9.803-27.868 24.458-27.865z" fill="#e279b3"/><path d="m201.981 217.731c14.655.005 30.664-12.881 24.458-27.864s-26.638-12.775-36.997-2.409l-.001-.001c10.366-10.359 12.574-30.791-2.409-36.997s-27.869 9.803-27.864 24.458h-.001c.005-14.655-12.881-30.664-27.864-24.458s-12.775 26.638-2.409 36.997l-.001.001c-10.359-10.366-30.791-12.574-36.997 2.409s9.803 27.869 24.458 27.864v.001c-14.655-.005-30.664 12.881-24.458 27.864s26.638 12.775 36.997 2.409l.001.001c-10.366 10.359-12.574 30.791 2.409 36.997s27.869-9.803 27.864-24.458h.001c-.005 14.655 12.881 30.664 27.864 24.458s12.775-26.638 2.409-36.997l.001-.001c10.359 10.366 30.791 12.574 36.997-2.409s-9.803-27.868-24.458-27.865z" fill="#e279b3"/><path d="m256 261.036c-23.111 20.524-30.379 27.859-30.379 36.979s7.393 16.513 16.513 16.513c5.819 0 10.925-3.018 13.866-7.566 2.941 4.548 8.047 7.566 13.866 7.566 9.12 0 16.513-7.393 16.513-16.513s-7.268-16.455-30.379-36.979z" fill="#4e5a61"/><circle cx="159" cy="217" r="42" fill="#4e5a61"/><circle cx="352" cy="217" r="42" fill="#4e5a61"/><path d="m117.431 298.441c-5.705 0-11.201-1.004-16.241-2.992.294 1.398-1.944 15.459-5.81 19.254 6.653 2.407 14.019 3.739 22.051 3.739 22.545 0 34.417 9.285 34.417 39.447 0 0 6.404 23.611 20 35.569v-35.569c0-38.163-21.205-59.448-54.417-59.448z" fill="#dce6eb"/><path d="m151.848 357.888c0 39.142 31.772 69.319 104.152 69.319s104.152-30.177 104.152-69.319c0 0-29.535 30.419-104.152 30.419s-104.152-30.419-104.152-30.419z" fill="#dce6eb"/><path d="m271 79.594c0 8.284-10.989 26.59-15 56.625-4.011-30.035-15-48.341-15-56.625s6.716-15 15-15 15 6.716 15 15z" fill="#ffe07d"/><path d="m320.619 116.006c-6.839 4.676-22.367 3.899-34.619 20.213 3.269-20.353 7.852-38.255 17.687-44.978 6.839-4.676 16.173-2.922 20.849 3.917 4.675 6.838 2.921 16.172-3.917 20.848z" fill="#ffe07d"/><path d="m191.381 116.006c6.839 4.676 22.367 3.899 34.619 20.213-3.269-20.353-7.852-38.255-17.687-44.978-6.839-4.676-16.173-2.922-20.849 3.917-4.675 6.838-2.921 16.172 3.917 20.848z" fill="#ffe07d"/><path d="m140.051 32.76c-5.036 4.598-9.825 9.62-14.335 15.084 5.787-4.77 11.856-9.037 18.15-12.841z" fill="#f7f9fa"/><g fill="#bce097"><path d="m334.613 54.709 33.521-19.706c-19.915-12.037-42.088-19.44-64.761-23.49l-4.737 13.81c-7.459 21.746 16.159 41.036 35.977 29.386z"/><path d="m358.952 99.752c-.915 8.234 5.018 15.65 13.252 16.565 39.648 4.405 66.64 32.359 76.039 58.601-3.184-17.132-6.604-32.254-9.1-41.435-7.083-26.051-17.972-47.104-31.518-63.995-43.901 14.776-47.758 22.03-48.673 30.264z"/><path d="m213.364 25.323-4.737-13.81c-22.673 4.05-44.846 11.453-64.761 23.49l33.521 19.706c19.818 11.65 43.436-7.64 35.977-29.386z"/><path d="m87.33 140.169c13.262-12.178 31.005-21.468 52.466-23.852 8.234-.915 14.167-8.331 13.252-16.565-.876-7.884-4.456-14.872-43.308-28.426-6.86 12.333-16.578 26.318-20.884 42.156-1.572 5.783.489 15.231-1.526 26.687z"/></g><path d="m87.33 140.169c2.015-11.456 3.954-20.904 5.526-26.687 4.306-15.838 10.023-29.823 16.884-42.156-1.72-.6-3.504-1.212-5.366-1.839-13.546 16.892-24.435 37.944-31.518 63.995-2.496 9.18-5.915 24.302-9.1 41.434 4.312-12.036 12.335-24.427 23.574-34.747z" fill="#9cd169"/><path d="m101.19 295.449c-1.92-9.116-9.779-16.019-19.34-16.526 1.695 8.859 7.456 15.729 19.34 16.526z" fill="#ffe07d"/><path d="m101.19 295.449c-7.89-3.112-14.649-8.648-19.34-16.526-.372-.02-.74-.057-1.117-.057-11.544 0-18.666-2.147-23.278-7.718 5.254 20.189 18.498 36.526 37.925 43.554 3.866-3.795 6.265-9.079 6.265-14.924-.001-1.485-.161-2.932-.455-4.329z" fill="#ffd064"/><path d="m431.268 278.866c-10.966 0-19.944 8.445-20.825 19.184 15.173 4.582 24.855-2.354 34.378-5.316 4.388-6.393 7.67-13.692 9.724-21.586-4.611 5.571-11.733 7.718-23.277 7.718z" fill="#ffe07d"/><path d="m410.356 299.778c0 5.845 2.399 11.129 6.265 14.924 11.831-4.28 21.366-12.011 28.201-21.968-9.524 2.963-21.037 4.627-34.378 5.316-.048.572-.088 1.145-.088 1.728z" fill="#ffd064"/></g><path d="m256 512c-44.457 0-81.957-15.607-108.445-45.133-2.766-3.083-2.509-7.825.574-10.591 3.083-2.767 7.825-2.51 10.591.574 13.109 14.613 29.34 25.394 48.06 32.083-.555-5.23.72-10.489 3.711-14.949 4.289-6.395 11.897-10.121 19.834-9.72 1.567.079 3.101.316 4.585.702.506-1.447 1.163-2.854 1.97-4.199 4.093-6.822 11.419-11.061 19.12-11.061s15.027 4.238 19.12 11.061c.807 1.345 1.464 2.751 1.97 4.198 1.484-.386 3.018-.623 4.585-.702 7.941-.406 15.546 3.325 19.834 9.72 2.99 4.46 4.265 9.717 3.711 14.946 18.503-6.613 34.578-17.223 47.605-31.577 22.083-24.331 34.244-58.639 34.244-96.604v-34.384c-12.65 1.663-19.417 8.807-19.417 31.522 0 22.826-9.684 41.979-28.004 55.39-19.425 14.22-47.569 21.43-83.648 21.43-36.102 0-64.238-7.144-83.627-21.234-18.334-13.323-28.025-32.42-28.025-55.225 0-.086 0-.173 0-.26 0-.04 0-.079 0-.118-.004-22.7-6.77-29.842-19.417-31.505v34.384c0 27.385 6.325 53.111 18.29 74.395 2.03 3.611.749 8.183-2.862 10.213-3.61 2.03-8.183.749-10.213-2.862-13.225-23.524-20.214-51.791-20.214-81.746v-35.176c-36.648-3.638-62.516-33.908-62.516-74.648 0-37.072 11.856-96.065 18.203-119.411 12.86-47.301 38.888-82.527 77.361-104.7 30.873-17.791 68.898-26.813 113.02-26.813 23.292 0 45.229 2.588 65.202 7.691 4.013 1.025 6.435 5.11 5.41 9.124-1.025 4.013-5.108 6.437-9.124 5.41-2.997-.766-6.042-1.471-9.134-2.116l-2.623 7.647c-2.875 8.384.909 15.299 5.41 18.975 4.501 3.677 12.032 6.003 19.672 1.513l22.148-13.021c-2.39-1.187-4.829-2.323-7.314-3.408-3.796-1.657-5.53-6.078-3.873-9.874 1.656-3.796 6.078-5.532 9.874-3.873 48.104 20.999 79.977 59.167 94.734 113.446 6.347 23.346 18.203 82.339 18.203 119.411 0 40.74-25.867 71.01-62.516 74.648v35.176c0 41.701-13.543 79.589-38.136 106.686-26.461 29.154-63.784 44.565-107.933 44.565zm-28.659-17.555c5.158.959 10.46 1.651 15.899 2.07l-6.682-12.526c-2.096-3.927-5.277-4.658-6.987-4.745-2.718-.133-5.251 1.049-6.622 3.093-1.803 2.689-1.331 5.349-.889 6.694.818 2.492 2.725 4.49 5.098 5.344.062.024.123.047.183.07zm48.1-10.455-6.682 12.525c5.442-.42 10.746-1.112 15.908-2.073.058-.022.115-.044.174-.065 2.373-.854 4.279-2.852 5.098-5.344.442-1.346.915-4.005-.889-6.695-1.371-2.044-3.908-3.23-6.622-3.093-1.709.087-4.891.818-6.987 4.745zm-19.441-19.283c-2.461 0-4.859 1.447-6.256 3.777-.881 1.468-2.046 4.518.049 8.445l6.207 11.636 6.207-11.635c2.095-3.928.931-6.978.05-8.446-1.398-2.33-3.796-3.777-6.257-3.777zm-27.217-46.668c6.198.816 12.775 1.336 19.717 1.553v-23.886c-6.969-.19-13.537-.641-19.717-1.3zm34.717-22.333v23.885c6.942-.218 13.52-.742 19.717-1.562v-23.624c-6.18.66-12.748 1.111-19.717 1.301zm-69.435 13.002c5.879 2.682 12.462 4.893 19.717 6.61v-23.029c-7.202-1.276-13.765-2.834-19.717-4.558zm104.152-16.419v23.003c7.255-1.728 13.838-3.951 19.717-6.649v-20.913c-5.952 1.725-12.515 3.282-19.717 4.559zm-136.693-18.182c2.955 10.098 8.88 18.667 17.542 25.555v-17.064c-7.054-2.817-12.873-5.765-17.542-8.491zm171.411 8.491v16.946c8.57-6.854 14.46-15.363 17.446-25.382-4.654 2.711-10.439 5.637-17.446 8.436zm-104.152-3.304c6.11.705 12.678 1.197 19.717 1.404v-21.101c-7.08-.244-13.646-.824-19.717-1.634zm34.717-19.693v21.094c6.072-.183 12.73-.607 19.717-1.411v-21.277c-6.055.791-12.621 1.356-19.717 1.594zm34.717-4.181v21.582c6.518-1.247 13.15-2.871 19.717-4.97v-22.092c-5.584 1.91-12.13 3.843-19.717 5.48zm-104.152 16.599c5.704 1.821 12.269 3.548 19.717 4.981v-21.666c-7.562-1.651-14.116-3.593-19.717-5.503zm138.87-27.852v22.111c10.054-4.575 16.435-9.128 19.563-11.647-1.211-12.12-9.204-13.248-11.931-13.271-1.162.148-4.544 1.532-7.632 2.807zm-173.405 10.486c3.138 2.523 9.51 7.063 19.536 11.625v-22.168c-3.125-1.27-6.47-2.609-7.628-2.75-2.705.023-10.609 1.153-11.908 13.293zm11.991-28.293c3.714 0 7.735 1.635 13.822 4.111 13.108 5.331 35.048 14.254 70.656 14.254 36.288 0 57.926-8.936 70.855-14.275 5.962-2.462 9.902-4.089 13.624-4.089 5.951 0 11.832 2.067 16.428 5.726 5.971-14.324 18.322-21.145 37.662-21.145 3.385 0 6.801-.306 10.188-.927-1.248-3.232-1.901-6.695-1.901-10.236 0-15.667 12.746-28.412 28.412-28.412 10.368 0 14.43-1.948 16.648-4.079 1.083-5 1.668-10.45 1.668-16.362 0-20.728-4.055-49.448-8.608-74.049-8.708-23.622-33.518-49.097-69.6-53.106-12.331-1.37-21.248-12.516-19.878-24.847.584-5.26 2.361-11.488 11.107-17.807 6.41-4.63 16.73-9.484 32.111-15.068-7.903-8.451-16.81-15.883-26.702-22.275l-29.601 17.401c-11.764 6.916-26.195 5.806-36.762-2.826-10.569-8.633-14.537-22.551-10.109-35.459l1.845-5.378c-11.915-1.67-24.417-2.512-37.386-2.512-13.425 0-25.872.843-37.419 2.418l1.877 5.472c4.428 12.908.459 26.826-10.109 35.458s-24.999 9.741-36.762 2.826l-29.7-17.459c-10.231 6.676-19.02 14.232-26.562 22.344 34.964 12.667 41.828 20.712 43.178 32.865 1.37 12.331-7.547 23.477-19.878 24.847-4.122.458-7.825-2.509-8.282-6.626-.458-4.117 2.509-7.825 6.626-8.282 4.11-.457 7.083-4.172 6.626-8.282-.409-3.681-1.017-9.181-38.486-22.23-13.538 18.236-21.899 38.285-27.015 57.1-.147.543-.299 1.107-.453 1.694 7.799-7.674 16.897-14.172 26.803-18.959 3.73-1.803 8.213-.24 10.017 3.489 1.802 3.729.24 8.214-3.489 10.017-19.305 9.33-34.955 26.198-41.947 45.185-4.554 24.602-8.608 53.322-8.608 74.05 0 5.525.629 11.133 1.911 16.587 2.271 2.041 6.406 3.854 16.406 3.854 15.667 0 28.412 12.746 28.412 28.412 0 3.581-.668 7.083-1.945 10.347 3.227.535 6.635.816 10.231.816 19.35 0 31.706 6.831 37.673 21.17 4.586-3.677 10.46-5.753 16.416-5.753zm-99.86-40.506c4.963 8.273 11.975 15.259 21.16 19.741.865-1.797 1.324-3.78 1.324-5.817 0-7.396-6.017-13.412-13.412-13.412-2.866 0-5.95-.107-9.072-.512zm368.943-.035c-3.212.433-6.391.547-9.337.547-7.396 0-13.412 6.017-13.412 13.412 0 1.938.415 3.828 1.201 5.555 8.466-4.13 16.055-10.586 21.548-19.514zm-35.643-207.493c-37.532 13.065-38.146 18.571-38.555 22.254-.457 4.11 2.516 7.826 6.626 8.282 24.586 2.731 44.748 13.995 59.365 28.424-.167-.638-.331-1.25-.49-1.836-5.971-21.964-14.977-41.034-26.946-57.124zm-246.09-43.202 22.317 13.12c7.639 4.491 15.171 2.164 19.672-1.513 4.5-3.676 8.285-10.591 5.41-18.974l-2.672-7.79c-16.997 3.492-31.817 8.692-44.727 15.157zm110.995 286.904c-5.06 0-9.875-1.574-13.866-4.406-3.991 2.832-8.807 4.406-13.866 4.406-13.241 0-24.013-10.772-24.013-24.013 0-12.857 9.497-21.804 32.899-42.587 2.842-2.522 7.119-2.522 9.961 0 23.402 20.783 32.899 29.73 32.899 42.587-.001 13.241-10.773 24.013-24.014 24.013zm-13.866-22.566c2.545 0 4.916 1.291 6.298 3.428 1.676 2.591 4.505 4.138 7.568 4.138 4.97 0 9.013-4.043 9.013-9.013 0-5.242-5.564-11.386-22.879-26.927-17.315 15.541-22.879 21.685-22.879 26.927 0 4.97 4.043 9.013 9.013 9.013 3.063 0 5.893-1.547 7.568-4.138 1.382-2.138 3.753-3.428 6.298-3.428zm118.033-5.581c-4.758 0-9.443-1.448-13.729-4.313-2.812-1.88-5.334-4.319-7.471-7.132-2.137 2.813-4.659 5.252-7.471 7.132-7.147 4.777-15.409 5.616-23.264 2.363-7.854-3.253-13.103-9.689-14.779-18.121-.659-3.317-.718-6.826-.24-10.326-3.5.479-7.009.419-10.326-.24-8.432-1.676-14.867-6.924-18.121-14.778-3.253-7.854-2.414-16.117 2.363-23.264 1.88-2.812 4.319-5.334 7.132-7.471-2.813-2.137-5.253-4.66-7.132-7.472-4.777-7.147-5.617-15.409-2.363-23.263s9.689-13.103 18.121-14.779c3.317-.66 6.826-.718 10.327-.24-.479-3.5-.42-7.009.24-10.326 1.675-8.432 6.924-14.867 14.778-18.121s16.116-2.415 23.264 2.363c2.812 1.88 5.334 4.319 7.471 7.132 2.137-2.813 4.659-5.252 7.471-7.132 7.148-4.777 15.41-5.616 23.264-2.363s13.103 9.688 14.778 18.12c.66 3.318.718 6.826.24 10.327 3.5-.478 7.009-.419 10.326.24 8.432 1.676 14.868 6.924 18.121 14.779s2.414 16.116-2.363 23.263c-1.879 2.812-4.319 5.334-7.133 7.472 2.814 2.137 5.253 4.659 7.133 7.471 4.777 7.147 5.617 15.409 2.363 23.264-3.253 7.854-9.689 13.103-18.121 14.778-3.317.659-6.826.717-10.327.24.479 3.501.42 7.009-.24 10.327-1.676 8.432-6.924 14.867-14.778 18.12-3.145 1.304-6.356 1.95-9.534 1.95zm-12.502-26.588c1.417 4.055 3.985 7.717 7.108 9.805 2.972 1.986 5.978 2.306 9.188.976s5.11-3.68 5.807-7.186c.733-3.691-.044-8.105-1.917-11.98-5.922 4.167-12.776 7.089-20.186 8.385zm-37.583-8.386c-1.872 3.875-2.65 8.289-1.917 11.98.697 3.506 2.596 5.857 5.807 7.187 3.21 1.33 6.215 1.01 9.188-.976 3.124-2.088 5.691-5.75 7.108-9.805-7.409-1.296-14.263-4.218-20.186-8.386zm28.885-5.862c19.472 0 35.313-15.842 35.313-35.313 0-19.472-15.842-35.313-35.313-35.313-19.472 0-35.313 15.841-35.313 35.313s15.841 35.313 35.313 35.313c-.001 0 0 0 0 0zm41.175-6.428c3.875 1.872 8.291 2.65 11.98 1.916 3.506-.697 5.856-2.596 7.186-5.806s1.011-6.216-.976-9.188c-2.088-3.124-5.75-5.691-9.805-7.108-1.295 7.409-4.217 14.263-8.385 20.186zm-90.736-20.187c-4.055 1.417-7.717 3.985-9.805 7.108-1.986 2.972-2.306 5.978-.976 9.188s3.68 5.109 7.186 5.806c3.694.735 8.106-.044 11.98-1.916-4.167-5.922-7.089-12.776-8.385-20.186zm90.736-37.583c4.167 5.922 7.089 12.776 8.386 20.187 4.055-1.418 7.717-3.985 9.805-7.109 1.986-2.972 2.306-5.977.976-9.188-1.33-3.21-3.681-5.11-7.187-5.807-3.688-.734-8.105.046-11.98 1.917zm-91.43-2.19c-1 0-1.972.089-2.9.273-3.506.697-5.857 2.596-7.187 5.807-1.33 3.21-1.011 6.216.976 9.188 2.087 3.124 5.75 5.691 9.805 7.109 1.296-7.41 4.219-14.265 8.386-20.187-2.901-1.401-6.104-2.19-9.08-2.19zm58.953-18.486c7.41 1.296 14.264 4.218 20.187 8.386 1.872-3.875 2.65-8.289 1.917-11.98-.697-3.506-2.596-5.856-5.807-7.186-3.211-1.331-6.216-1.011-9.188.975-3.124 2.087-5.691 5.75-7.109 9.805zm-29.906-11.584c-1.237 0-2.495.268-3.787.803-3.21 1.33-5.11 3.68-5.807 7.186-.733 3.691.045 8.105 1.917 11.98 5.921-4.166 12.778-7.089 20.186-8.385-1.417-4.055-3.985-7.718-7.108-9.806-1.776-1.187-3.564-1.778-5.401-1.778zm-151.258 137.294c-4.758 0-9.443-1.448-13.729-4.313-2.812-1.88-5.334-4.319-7.471-7.132-2.137 2.813-4.659 5.252-7.471 7.132-7.147 4.777-15.409 5.616-23.264 2.363-7.854-3.253-13.103-9.688-14.778-18.12-.66-3.318-.718-6.827-.24-10.327-3.501.479-7.009.419-10.327-.24-8.432-1.676-14.867-6.924-18.121-14.778-3.253-7.854-2.414-16.116 2.363-23.264 1.88-2.812 4.319-5.334 7.133-7.471-2.814-2.137-5.253-4.659-7.133-7.472-4.777-7.147-5.617-15.409-2.363-23.263s9.689-13.103 18.121-14.779c3.317-.659 6.827-.717 10.326-.24-.479-3.5-.42-7.009.24-10.327 1.676-8.432 6.924-14.867 14.778-18.12 7.855-3.254 16.115-2.415 23.264 2.363 2.812 1.88 5.334 4.319 7.471 7.132 2.137-2.813 4.659-5.252 7.471-7.132 7.148-4.777 15.41-5.616 23.264-2.363s13.103 9.688 14.778 18.121c.66 3.317.718 6.826.24 10.326 3.501-.478 7.008-.419 10.327.24 8.432 1.676 14.867 6.924 18.121 14.779s2.414 16.116-2.363 23.263c-1.879 2.812-4.319 5.334-7.132 7.472 2.813 2.137 5.252 4.659 7.132 7.471 4.777 7.147 5.617 15.409 2.363 23.264-3.253 7.854-9.689 13.103-18.121 14.778-3.317.659-6.825.717-10.326.24.479 3.501.419 7.009-.24 10.326-1.676 8.432-6.924 14.868-14.779 18.121-3.145 1.304-6.356 1.95-9.534 1.95zm-12.502-26.588c1.417 4.055 3.985 7.717 7.108 9.805 2.972 1.986 5.978 2.306 9.188.976s5.11-3.681 5.807-7.187c.734-3.691-.044-8.105-1.917-11.98-5.922 4.168-12.776 7.09-20.186 8.386zm-37.583-8.386c-1.872 3.875-2.65 8.289-1.917 11.98.697 3.506 2.596 5.856 5.807 7.186 3.21 1.33 6.217 1.01 9.188-.976 3.124-2.088 5.691-5.75 7.108-9.805-7.409-1.295-14.263-4.217-20.186-8.385zm28.885-5.862c19.472 0 35.313-15.842 35.313-35.313 0-19.472-15.841-35.313-35.313-35.313-19.471 0-35.313 15.841-35.313 35.313s15.841 35.313 35.313 35.313zm41.175-6.428c3.875 1.872 8.29 2.65 11.98 1.916 3.506-.697 5.856-2.596 7.186-5.806s1.011-6.216-.976-9.188c-2.088-3.124-5.75-5.691-9.805-7.108-1.295 7.409-4.217 14.263-8.385 20.186zm-90.736-20.187c-4.055 1.417-7.717 3.985-9.805 7.108-1.986 2.972-2.306 5.978-.976 9.188s3.68 5.109 7.186 5.806c3.693.735 8.106-.044 11.98-1.916-4.167-5.922-7.089-12.776-8.385-20.186zm90.736-37.583c4.167 5.922 7.089 12.777 8.386 20.187 4.055-1.418 7.717-3.985 9.805-7.109 1.986-2.972 2.306-5.977.976-9.188-1.33-3.21-3.681-5.11-7.187-5.807-3.691-.733-8.105.045-11.98 1.917zm-91.43-2.19c-1 0-1.973.089-2.9.273-3.506.697-5.857 2.596-7.187 5.807-1.33 3.21-1.011 6.216.976 9.188 2.088 3.124 5.75 5.691 9.805 7.109 1.296-7.41 4.218-14.264 8.386-20.187-2.901-1.401-6.104-2.19-9.08-2.19zm29.047-30.07c-1.237 0-2.495.268-3.787.803-3.21 1.33-5.11 3.68-5.807 7.186-.733 3.691.044 8.105 1.917 11.98 5.922-4.167 12.777-7.089 20.187-8.386-1.417-4.055-3.985-7.718-7.108-9.806-1.777-1.186-3.565-1.777-5.402-1.777zm29.906 11.584c7.408 1.296 14.265 4.22 20.186 8.385 1.872-3.875 2.65-8.289 1.917-11.98-.697-3.506-2.596-5.856-5.807-7.186-3.212-1.331-6.216-1.011-9.188.975-3.123 2.088-5.69 5.751-7.108 9.806zm88.135 4.247c-4.411 0-8-3.589-8-8s3.589-8 8-8 8 3.589 8 8-3.589 8-8 8zm29.998-28.698c-.984 0-1.98-.194-2.93-.598-3.174-1.348-5.02-4.688-4.473-8.092 3.348-20.841 8.192-41.32 20.859-49.98 10.242-7.002 24.271-4.367 31.273 5.875 7.001 10.242 4.366 24.271-5.875 31.273-3.051 2.085-6.684 3.221-10.529 4.423-7.187 2.246-15.333 4.792-22.325 14.103-1.452 1.931-3.696 2.996-6 2.996zm26.139-47.599c-1.496 0-2.956.448-4.217 1.311-4.673 3.195-7.985 11.228-10.302 19.536 4.509-2.252 8.757-3.58 12.23-4.665 2.746-.858 5.338-1.668 6.538-2.489 3.414-2.334 4.292-7.01 1.958-10.424-1.131-1.654-2.838-2.768-4.807-3.138-.466-.087-.934-.131-1.4-.131zm-86.135 47.599c-2.305 0-4.548-1.064-6-2.997-6.993-9.312-15.138-11.857-22.325-14.103-3.846-1.202-7.479-2.337-10.529-4.423-10.241-7.002-12.877-21.031-5.875-31.273s21.032-12.876 31.273-5.875c12.667 8.66 17.511 29.14 20.859 49.98.547 3.405-1.299 6.744-4.473 8.092-.949.404-1.945.599-2.93.599zm-30.388-33.906c1.2.82 3.793 1.63 6.538 2.489 3.473 1.085 7.721 2.413 12.23 4.665-2.317-8.308-5.629-16.341-10.302-19.536-1.654-1.131-3.651-1.549-5.618-1.18-1.969.37-3.676 1.484-4.807 3.138-2.333 3.414-1.455 8.09 1.959 10.424zm60.386 33.905c-3.758 0-6.937-2.782-7.434-6.507-2.306-17.268-7.055-30.572-10.522-40.287-2.638-7.389-4.543-12.728-4.543-17.331 0-12.407 10.093-22.5 22.5-22.5s22.5 10.093 22.5 22.5c0 4.604-1.906 9.942-4.543 17.331-3.467 9.714-8.217 23.019-10.522 40.287-.499 3.726-3.678 6.507-7.436 6.507zm0-71.625c-4.136 0-7.5 3.365-7.5 7.5 0 2.007 1.866 7.233 3.67 12.288 1.18 3.305 2.499 7.001 3.83 11.114 1.331-4.113 2.65-7.809 3.83-11.114 1.805-5.055 3.67-10.281 3.67-12.288 0-4.135-3.364-7.5-7.5-7.5z"/></g><path d="m256 512c-44.457 0-81.957-15.607-108.445-45.133-2.766-3.083-2.509-7.825.574-10.591 3.083-2.767 7.825-2.51 10.591.574 13.109 14.613 29.34 25.394 48.06 32.083-.555-5.23.72-10.489 3.711-14.949 4.289-6.395 11.897-10.121 19.834-9.72 1.567.079 3.101.316 4.585.702.506-1.447 1.163-2.854 1.97-4.199 4.093-6.822 11.419-11.061 19.12-11.061s15.027 4.238 19.12 11.061c.807 1.345 1.464 2.751 1.97 4.198 1.484-.386 3.018-.623 4.585-.702 7.941-.406 15.546 3.325 19.834 9.72 2.99 4.46 4.265 9.717 3.711 14.946 18.503-6.613 34.578-17.223 47.605-31.577 22.083-24.331 34.244-58.639 34.244-96.604v-34.384c-12.65 1.663-19.417 8.807-19.417 31.522 0 22.826-9.684 41.979-28.004 55.39-19.425 14.22-47.569 21.43-83.648 21.43-36.102 0-64.238-7.144-83.627-21.234-18.334-13.323-28.025-32.42-28.025-55.225 0-.086 0-.173 0-.26 0-.04 0-.079 0-.118-.004-22.7-6.77-29.842-19.417-31.505v34.384c0 27.385 6.325 53.111 18.29 74.395 2.03 3.611.749 8.183-2.862 10.213-3.61 2.03-8.183.749-10.213-2.862-13.225-23.524-20.214-51.791-20.214-81.746v-35.176c-36.648-3.638-62.516-33.908-62.516-74.648 0-37.072 11.856-96.065 18.203-119.411 12.86-47.301 38.888-82.527 77.361-104.7 30.873-17.791 68.898-26.813 113.02-26.813 23.292 0 45.229 2.588 65.202 7.691 4.013 1.025 6.435 5.11 5.41 9.124-1.025 4.013-5.108 6.437-9.124 5.41-2.997-.766-6.042-1.471-9.134-2.116l-2.623 7.647c-2.875 8.384.909 15.299 5.41 18.975 4.501 3.677 12.032 6.003 19.672 1.513l22.148-13.021c-2.39-1.187-4.829-2.323-7.314-3.408-3.796-1.657-5.53-6.078-3.873-9.874 1.656-3.796 6.078-5.532 9.874-3.873 48.104 20.999 79.977 59.167 94.734 113.446 6.347 23.346 18.203 82.339 18.203 119.411 0 40.74-25.867 71.01-62.516 74.648v35.176c0 41.701-13.543 79.589-38.136 106.686-26.461 29.154-63.784 44.565-107.933 44.565zm-28.659-17.555c5.158.959 10.46 1.651 15.899 2.07l-6.682-12.526c-2.096-3.927-5.277-4.658-6.987-4.745-2.718-.133-5.251 1.049-6.622 3.093-1.803 2.689-1.331 5.349-.889 6.694.818 2.492 2.725 4.49 5.098 5.344.062.024.123.047.183.07zm48.1-10.455-6.682 12.525c5.442-.42 10.746-1.112 15.908-2.073.058-.022.115-.044.174-.065 2.373-.854 4.279-2.852 5.098-5.344.442-1.346.915-4.005-.889-6.695-1.371-2.044-3.908-3.23-6.622-3.093-1.709.087-4.891.818-6.987 4.745zm-19.441-19.283c-2.461 0-4.859 1.447-6.256 3.777-.881 1.468-2.046 4.518.049 8.445l6.207 11.636 6.207-11.635c2.095-3.928.931-6.978.05-8.446-1.398-2.33-3.796-3.777-6.257-3.777zm-27.217-46.668c6.198.816 12.775 1.336 19.717 1.553v-23.886c-6.969-.19-13.537-.641-19.717-1.3zm34.717-22.333v23.885c6.942-.218 13.52-.742 19.717-1.562v-23.624c-6.18.66-12.748 1.111-19.717 1.301zm-69.435 13.002c5.879 2.682 12.462 4.893 19.717 6.61v-23.029c-7.202-1.276-13.765-2.834-19.717-4.558zm104.152-16.419v23.003c7.255-1.728 13.838-3.951 19.717-6.649v-20.913c-5.952 1.725-12.515 3.282-19.717 4.559zm-136.693-18.182c2.955 10.098 8.88 18.667 17.542 25.555v-17.064c-7.054-2.817-12.873-5.765-17.542-8.491zm171.411 8.491v16.946c8.57-6.854 14.46-15.363 17.446-25.382-4.654 2.711-10.439 5.637-17.446 8.436zm-104.152-3.304c6.11.705 12.678 1.197 19.717 1.404v-21.101c-7.08-.244-13.646-.824-19.717-1.634zm34.717-19.693v21.094c6.072-.183 12.73-.607 19.717-1.411v-21.277c-6.055.791-12.621 1.356-19.717 1.594zm34.717-4.181v21.582c6.518-1.247 13.15-2.871 19.717-4.97v-22.092c-5.584 1.91-12.13 3.843-19.717 5.48zm-104.152 16.599c5.704 1.821 12.269 3.548 19.717 4.981v-21.666c-7.562-1.651-14.116-3.593-19.717-5.503zm138.87-27.852v22.111c10.054-4.575 16.435-9.128 19.563-11.647-1.211-12.12-9.204-13.248-11.931-13.271-1.162.148-4.544 1.532-7.632 2.807zm-173.405 10.486c3.138 2.523 9.51 7.063 19.536 11.625v-22.168c-3.125-1.27-6.47-2.609-7.628-2.75-2.705.023-10.609 1.153-11.908 13.293zm11.991-28.293c3.714 0 7.735 1.635 13.822 4.111 13.108 5.331 35.048 14.254 70.656 14.254 36.288 0 57.926-8.936 70.855-14.275 5.962-2.462 9.902-4.089 13.624-4.089 5.951 0 11.832 2.067 16.428 5.726 5.971-14.324 18.322-21.145 37.662-21.145 3.385 0 6.801-.306 10.188-.927-1.248-3.232-1.901-6.695-1.901-10.236 0-15.667 12.746-28.412 28.412-28.412 10.368 0 14.43-1.948 16.648-4.079 1.083-5 1.668-10.45 1.668-16.362 0-20.728-4.055-49.448-8.608-74.049-8.708-23.622-33.518-49.097-69.6-53.106-12.331-1.37-21.248-12.516-19.878-24.847.584-5.26 2.361-11.488 11.107-17.807 6.41-4.63 16.73-9.484 32.111-15.068-7.903-8.451-16.81-15.883-26.702-22.275l-29.601 17.401c-11.764 6.916-26.195 5.806-36.762-2.826-10.569-8.633-14.537-22.551-10.109-35.459l1.845-5.378c-11.915-1.67-24.417-2.512-37.386-2.512-13.425 0-25.872.843-37.419 2.418l1.877 5.472c4.428 12.908.459 26.826-10.109 35.458s-24.999 9.741-36.762 2.826l-29.7-17.459c-10.231 6.676-19.02 14.232-26.562 22.344 34.964 12.667 41.828 20.712 43.178 32.865 1.37 12.331-7.547 23.477-19.878 24.847-4.122.458-7.825-2.509-8.282-6.626-.458-4.117 2.509-7.825 6.626-8.282 4.11-.457 7.083-4.172 6.626-8.282-.409-3.681-1.017-9.181-38.486-22.23-13.538 18.236-21.899 38.285-27.015 57.1-.147.543-.299 1.107-.453 1.694 7.799-7.674 16.897-14.172 26.803-18.959 3.73-1.803 8.213-.24 10.017 3.489 1.802 3.729.24 8.214-3.489 10.017-19.305 9.33-34.955 26.198-41.947 45.185-4.554 24.602-8.608 53.322-8.608 74.05 0 5.525.629 11.133 1.911 16.587 2.271 2.041 6.406 3.854 16.406 3.854 15.667 0 28.412 12.746 28.412 28.412 0 3.581-.668 7.083-1.945 10.347 3.227.535 6.635.816 10.231.816 19.35 0 31.706 6.831 37.673 21.17 4.586-3.677 10.46-5.753 16.416-5.753zm-99.86-40.506c4.963 8.273 11.975 15.259 21.16 19.741.865-1.797 1.324-3.78 1.324-5.817 0-7.396-6.017-13.412-13.412-13.412-2.866 0-5.95-.107-9.072-.512zm368.943-.035c-3.212.433-6.391.547-9.337.547-7.396 0-13.412 6.017-13.412 13.412 0 1.938.415 3.828 1.201 5.555 8.466-4.13 16.055-10.586 21.548-19.514zm-35.643-207.493c-37.532 13.065-38.146 18.571-38.555 22.254-.457 4.11 2.516 7.826 6.626 8.282 24.586 2.731 44.748 13.995 59.365 28.424-.167-.638-.331-1.25-.49-1.836-5.971-21.964-14.977-41.034-26.946-57.124zm-246.09-43.202 22.317 13.12c7.639 4.491 15.171 2.164 19.672-1.513 4.5-3.676 8.285-10.591 5.41-18.974l-2.672-7.79c-16.997 3.492-31.817 8.692-44.727 15.157zm110.995 286.904c-5.06 0-9.875-1.574-13.866-4.406-3.991 2.832-8.807 4.406-13.866 4.406-13.241 0-24.013-10.772-24.013-24.013 0-12.857 9.497-21.804 32.899-42.587 2.842-2.522 7.119-2.522 9.961 0 23.402 20.783 32.899 29.73 32.899 42.587-.001 13.241-10.773 24.013-24.014 24.013zm-13.866-22.566c2.545 0 4.916 1.291 6.298 3.428 1.676 2.591 4.505 4.138 7.568 4.138 4.97 0 9.013-4.043 9.013-9.013 0-5.242-5.564-11.386-22.879-26.927-17.315 15.541-22.879 21.685-22.879 26.927 0 4.97 4.043 9.013 9.013 9.013 3.063 0 5.893-1.547 7.568-4.138 1.382-2.138 3.753-3.428 6.298-3.428zm118.033-5.581c-4.758 0-9.443-1.448-13.729-4.313-2.812-1.88-5.334-4.319-7.471-7.132-2.137 2.813-4.659 5.252-7.471 7.132-7.147 4.777-15.409 5.616-23.264 2.363-7.854-3.253-13.103-9.689-14.779-18.121-.659-3.317-.718-6.826-.24-10.326-3.5.479-7.009.419-10.326-.24-8.432-1.676-14.867-6.924-18.121-14.778-3.253-7.854-2.414-16.117 2.363-23.264 1.88-2.812 4.319-5.334 7.132-7.471-2.813-2.137-5.253-4.66-7.132-7.472-4.777-7.147-5.617-15.409-2.363-23.263s9.689-13.103 18.121-14.779c3.317-.66 6.826-.718 10.327-.24-.479-3.5-.42-7.009.24-10.326 1.675-8.432 6.924-14.867 14.778-18.121s16.116-2.415 23.264 2.363c2.812 1.88 5.334 4.319 7.471 7.132 2.137-2.813 4.659-5.252 7.471-7.132 7.148-4.777 15.41-5.616 23.264-2.363s13.103 9.688 14.778 18.12c.66 3.318.718 6.826.24 10.327 3.5-.478 7.009-.419 10.326.24 8.432 1.676 14.868 6.924 18.121 14.779s2.414 16.116-2.363 23.263c-1.879 2.812-4.319 5.334-7.133 7.472 2.814 2.137 5.253 4.659 7.133 7.471 4.777 7.147 5.617 15.409 2.363 23.264-3.253 7.854-9.689 13.103-18.121 14.778-3.317.659-6.826.717-10.327.24.479 3.501.42 7.009-.24 10.327-1.676 8.432-6.924 14.867-14.778 18.12-3.145 1.304-6.356 1.95-9.534 1.95zm-12.502-26.588c1.417 4.055 3.985 7.717 7.108 9.805 2.972 1.986 5.978 2.306 9.188.976s5.11-3.68 5.807-7.186c.733-3.691-.044-8.105-1.917-11.98-5.922 4.167-12.776 7.089-20.186 8.385zm-37.583-8.386c-1.872 3.875-2.65 8.289-1.917 11.98.697 3.506 2.596 5.857 5.807 7.187 3.21 1.33 6.215 1.01 9.188-.976 3.124-2.088 5.691-5.75 7.108-9.805-7.409-1.296-14.263-4.218-20.186-8.386zm28.885-5.862c19.472 0 35.313-15.842 35.313-35.313 0-19.472-15.842-35.313-35.313-35.313-19.472 0-35.313 15.841-35.313 35.313s15.841 35.313 35.313 35.313c-.001 0 0 0 0 0zm41.175-6.428c3.875 1.872 8.291 2.65 11.98 1.916 3.506-.697 5.856-2.596 7.186-5.806s1.011-6.216-.976-9.188c-2.088-3.124-5.75-5.691-9.805-7.108-1.295 7.409-4.217 14.263-8.385 20.186zm-90.736-20.187c-4.055 1.417-7.717 3.985-9.805 7.108-1.986 2.972-2.306 5.978-.976 9.188s3.68 5.109 7.186 5.806c3.694.735 8.106-.044 11.98-1.916-4.167-5.922-7.089-12.776-8.385-20.186zm90.736-37.583c4.167 5.922 7.089 12.776 8.386 20.187 4.055-1.418 7.717-3.985 9.805-7.109 1.986-2.972 2.306-5.977.976-9.188-1.33-3.21-3.681-5.11-7.187-5.807-3.688-.734-8.105.046-11.98 1.917zm-91.43-2.19c-1 0-1.972.089-2.9.273-3.506.697-5.857 2.596-7.187 5.807-1.33 3.21-1.011 6.216.976 9.188 2.087 3.124 5.75 5.691 9.805 7.109 1.296-7.41 4.219-14.265 8.386-20.187-2.901-1.401-6.104-2.19-9.08-2.19zm58.953-18.486c7.41 1.296 14.264 4.218 20.187 8.386 1.872-3.875 2.65-8.289 1.917-11.98-.697-3.506-2.596-5.856-5.807-7.186-3.211-1.331-6.216-1.011-9.188.975-3.124 2.087-5.691 5.75-7.109 9.805zm-29.906-11.584c-1.237 0-2.495.268-3.787.803-3.21 1.33-5.11 3.68-5.807 7.186-.733 3.691.045 8.105 1.917 11.98 5.921-4.166 12.778-7.089 20.186-8.385-1.417-4.055-3.985-7.718-7.108-9.806-1.776-1.187-3.564-1.778-5.401-1.778zm-151.258 137.294c-4.758 0-9.443-1.448-13.729-4.313-2.812-1.88-5.334-4.319-7.471-7.132-2.137 2.813-4.659 5.252-7.471 7.132-7.147 4.777-15.409 5.616-23.264 2.363-7.854-3.253-13.103-9.688-14.778-18.12-.66-3.318-.718-6.827-.24-10.327-3.501.479-7.009.419-10.327-.24-8.432-1.676-14.867-6.924-18.121-14.778-3.253-7.854-2.414-16.116 2.363-23.264 1.88-2.812 4.319-5.334 7.133-7.471-2.814-2.137-5.253-4.659-7.133-7.472-4.777-7.147-5.617-15.409-2.363-23.263s9.689-13.103 18.121-14.779c3.317-.659 6.827-.717 10.326-.24-.479-3.5-.42-7.009.24-10.327 1.676-8.432 6.924-14.867 14.778-18.12 7.855-3.254 16.115-2.415 23.264 2.363 2.812 1.88 5.334 4.319 7.471 7.132 2.137-2.813 4.659-5.252 7.471-7.132 7.148-4.777 15.41-5.616 23.264-2.363s13.103 9.688 14.778 18.121c.66 3.317.718 6.826.24 10.326 3.501-.478 7.008-.419 10.327.24 8.432 1.676 14.867 6.924 18.121 14.779s2.414 16.116-2.363 23.263c-1.879 2.812-4.319 5.334-7.132 7.472 2.813 2.137 5.252 4.659 7.132 7.471 4.777 7.147 5.617 15.409 2.363 23.264-3.253 7.854-9.689 13.103-18.121 14.778-3.317.659-6.825.717-10.326.24.479 3.501.419 7.009-.24 10.326-1.676 8.432-6.924 14.868-14.779 18.121-3.145 1.304-6.356 1.95-9.534 1.95zm-12.502-26.588c1.417 4.055 3.985 7.717 7.108 9.805 2.972 1.986 5.978 2.306 9.188.976s5.11-3.681 5.807-7.187c.734-3.691-.044-8.105-1.917-11.98-5.922 4.168-12.776 7.09-20.186 8.386zm-37.583-8.386c-1.872 3.875-2.65 8.289-1.917 11.98.697 3.506 2.596 5.856 5.807 7.186 3.21 1.33 6.217 1.01 9.188-.976 3.124-2.088 5.691-5.75 7.108-9.805-7.409-1.295-14.263-4.217-20.186-8.385zm28.885-5.862c19.472 0 35.313-15.842 35.313-35.313 0-19.472-15.841-35.313-35.313-35.313-19.471 0-35.313 15.841-35.313 35.313s15.841 35.313 35.313 35.313zm41.175-6.428c3.875 1.872 8.29 2.65 11.98 1.916 3.506-.697 5.856-2.596 7.186-5.806s1.011-6.216-.976-9.188c-2.088-3.124-5.75-5.691-9.805-7.108-1.295 7.409-4.217 14.263-8.385 20.186zm-90.736-20.187c-4.055 1.417-7.717 3.985-9.805 7.108-1.986 2.972-2.306 5.978-.976 9.188s3.68 5.109 7.186 5.806c3.693.735 8.106-.044 11.98-1.916-4.167-5.922-7.089-12.776-8.385-20.186zm90.736-37.583c4.167 5.922 7.089 12.777 8.386 20.187 4.055-1.418 7.717-3.985 9.805-7.109 1.986-2.972 2.306-5.977.976-9.188-1.33-3.21-3.681-5.11-7.187-5.807-3.691-.733-8.105.045-11.98 1.917zm-91.43-2.19c-1 0-1.973.089-2.9.273-3.506.697-5.857 2.596-7.187 5.807-1.33 3.21-1.011 6.216.976 9.188 2.088 3.124 5.75 5.691 9.805 7.109 1.296-7.41 4.218-14.264 8.386-20.187-2.901-1.401-6.104-2.19-9.08-2.19zm29.047-30.07c-1.237 0-2.495.268-3.787.803-3.21 1.33-5.11 3.68-5.807 7.186-.733 3.691.044 8.105 1.917 11.98 5.922-4.167 12.777-7.089 20.187-8.386-1.417-4.055-3.985-7.718-7.108-9.806-1.777-1.186-3.565-1.777-5.402-1.777zm29.906 11.584c7.408 1.296 14.265 4.22 20.186 8.385 1.872-3.875 2.65-8.289 1.917-11.98-.697-3.506-2.596-5.856-5.807-7.186-3.212-1.331-6.216-1.011-9.188.975-3.123 2.088-5.69 5.751-7.108 9.806zm88.135 4.247c-4.411 0-8-3.589-8-8s3.589-8 8-8 8 3.589 8 8-3.589 8-8 8zm29.998-28.698c-.984 0-1.98-.194-2.93-.598-3.174-1.348-5.02-4.688-4.473-8.092 3.348-20.841 8.192-41.32 20.859-49.98 10.242-7.002 24.271-4.367 31.273 5.875 7.001 10.242 4.366 24.271-5.875 31.273-3.051 2.085-6.684 3.221-10.529 4.423-7.187 2.246-15.333 4.792-22.325 14.103-1.452 1.931-3.696 2.996-6 2.996zm26.139-47.599c-1.496 0-2.956.448-4.217 1.311-4.673 3.195-7.985 11.228-10.302 19.536 4.509-2.252 8.757-3.58 12.23-4.665 2.746-.858 5.338-1.668 6.538-2.489 3.414-2.334 4.292-7.01 1.958-10.424-1.131-1.654-2.838-2.768-4.807-3.138-.466-.087-.934-.131-1.4-.131zm-86.135 47.599c-2.305 0-4.548-1.064-6-2.997-6.993-9.312-15.138-11.857-22.325-14.103-3.846-1.202-7.479-2.337-10.529-4.423-10.241-7.002-12.877-21.031-5.875-31.273s21.032-12.876 31.273-5.875c12.667 8.66 17.511 29.14 20.859 49.98.547 3.405-1.299 6.744-4.473 8.092-.949.404-1.945.599-2.93.599zm-30.388-33.906c1.2.82 3.793 1.63 6.538 2.489 3.473 1.085 7.721 2.413 12.23 4.665-2.317-8.308-5.629-16.341-10.302-19.536-1.654-1.131-3.651-1.549-5.618-1.18-1.969.37-3.676 1.484-4.807 3.138-2.333 3.414-1.455 8.09 1.959 10.424zm60.386 33.905c-3.758 0-6.937-2.782-7.434-6.507-2.306-17.268-7.055-30.572-10.522-40.287-2.638-7.389-4.543-12.728-4.543-17.331 0-12.407 10.093-22.5 22.5-22.5s22.5 10.093 22.5 22.5c0 4.604-1.906 9.942-4.543 17.331-3.467 9.714-8.217 23.019-10.522 40.287-.499 3.726-3.678 6.507-7.436 6.507zm0-71.625c-4.136 0-7.5 3.365-7.5 7.5 0 2.007 1.866 7.233 3.67 12.288 1.18 3.305 2.499 7.001 3.83 11.114 1.331-4.113 2.65-7.809 3.83-11.114 1.805-5.055 3.67-10.281 3.67-12.288 0-4.135-3.364-7.5-7.5-7.5z" transform="matrix(0.11636617034673691 -0.08145631849765778 0.08145631849765778 0.11636617034673691 91.53114318847656 256.7738952636719)" id="L1_3"/></defs><g fi:class="KUsePattern" opacity="0.45"><pattern id="pattern_L1_0" width="350" height="350" patternUnits="userSpaceOnUse"><use xlink:href="#L1_0" x="-350" y="-350"/><use xlink:href="#L1_0" x="0" y="-350"/><use xlink:href="#L1_0" x="350" y="-350"/><use xlink:href="#L1_0" x="-350" y="0"/><use xlink:href="#L1_0" x="0" y="0"/><use xlink:href="#L1_0" x="350" y="0"/><use xlink:href="#L1_0" x="-350" y="350"/><use xlink:href="#L1_0" x="0" y="350"/><use xlink:href="#L1_0" x="350" y="350"/></pattern><rect x="0" y="0" width="100%" height="100%" fill="url(#pattern_L1_0)"/></g><g fi:class="KUsePattern" opacity="0.49"><pattern id="pattern_L1_1" width="350" height="350" patternUnits="userSpaceOnUse"><use xlink:href="#L1_1" x="-350" y="-350"/><use xlink:href="#L1_1" x="0" y="-350"/><use xlink:href="#L1_1" x="350" y="-350"/><use xlink:href="#L1_1" x="-350" y="0"/><use xlink:href="#L1_1" x="0" y="0"/><use xlink:href="#L1_1" x="350" y="0"/><use xlink:href="#L1_1" x="-350" y="350"/><use xlink:href="#L1_1" x="0" y="350"/><use xlink:href="#L1_1" x="350" y="350"/></pattern><rect x="0" y="0" width="100%" height="100%" fill="url(#pattern_L1_1)"/></g><g fi:class="KUsePattern" opacity="0.52"><pattern id="pattern_L1_2" width="350" height="350" patternUnits="userSpaceOnUse"><use xlink:href="#L1_2" x="-350" y="-350"/><use xlink:href="#L1_2" x="0" y="-350"/><use xlink:href="#L1_2" x="350" y="-350"/><use xlink:href="#L1_2" x="-350" y="0"/><use xlink:href="#L1_2" x="0" y="0"/><use xlink:href="#L1_2" x="350" y="0"/><use xlink:href="#L1_2" x="-350" y="350"/><use xlink:href="#L1_2" x="0" y="350"/><use xlink:href="#L1_2" x="350" y="350"/></pattern><rect x="0" y="0" width="100%" height="100%" fill="url(#pattern_L1_2)"/></g><g fi:class="KUsePattern" opacity="0.24"><pattern id="pattern_L1_3" width="350" height="350" patternUnits="userSpaceOnUse"><use xlink:href="#L1_3" x="-350" y="-350"/><use xlink:href="#L1_3" x="0" y="-350"/><use xlink:href="#L1_3" x="350" y="-350"/><use xlink:href="#L1_3" x="-350" y="0"/><use xlink:href="#L1_3" x="0" y="0"/><use xlink:href="#L1_3" x="350" y="0"/><use xlink:href="#L1_3" x="-350" y="350"/><use xlink:href="#L1_3" x="0" y="350"/><use xlink:href="#L1_3" x="350" y="350"/></pattern><rect x="0" y="0" width="100%" height="100%" fill="url(#pattern_L1_3)"/></g></svg>